/* XPM */
static char *_d69f71c6edd4ae89bb8525fa17333b9RoV6IC4utCMIZorH[] = {
/* columns rows colors chars-per-pixel */
"64 64 255 2 ",
"   c #BE5B00",
".  c #CC4C00",
"X  c #CC5401",
"o  c #D45B02",
"O  c #DA6802",
"+  c #CE7404",
"@  c #E97402",
"#  c #EA7512",
"$  c #7CAA07",
"%  c #7DB30D",
"&  c #7CAC16",
"*  c #7FB210",
"=  c #8C9E0B",
"-  c #84AD05",
";  c #8CAB03",
":  c #84AD0C",
">  c #8AAC0D",
",  c #89A504",
"<  c #94A501",
"1  c #93AC02",
"2  c #9BAC03",
"3  c #94AC0C",
"4  c #9AAA0C",
"5  c #84B405",
"6  c #85B30D",
"7  c #8AB40D",
"8  c #84B80D",
"9  c #8AB90C",
"0  c #86B707",
"q  c #9DB205",
"w  c #92B30D",
"e  c #96B309",
"r  c #85AD13",
"t  c #8BAD14",
"y  c #85AC1A",
"u  c #8BAD1A",
"i  c #86A316",
"p  c #92AC14",
"a  c #94AC1A",
"s  c #98A818",
"d  c #86B413",
"f  c #8AB413",
"g  c #84B913",
"h  c #8CB914",
"j  c #86B41A",
"k  c #8BB41A",
"l  c #85B919",
"z  c #8DBA1B",
"x  c #92B415",
"c  c #92BA15",
"v  c #91B41A",
"b  c #92BA1C",
"n  c #9AB81A",
"m  c #A3AB01",
"M  c #A7A909",
"N  c #A6B505",
"B  c #B3BB0C",
"V  c #A7B919",
"C  c #B7B516",
"Z  c #A4A91A",
"A  c #8CAC23",
"S  c #87A828",
"D  c #99A628",
"F  c #8DB423",
"G  c #8CB923",
"H  c #86B324",
"J  c #92B622",
"K  c #94BC23",
"L  c #9AB92A",
"P  c #89A535",
"I  c #9AAA31",
"U  c #97BA36",
"Y  c #8DB030",
"T  c #A3AB26",
"R  c #A5B42C",
"E  c #B5B938",
"W  c #ABAD31",
"Q  c #EC8B05",
"!  c #F58D03",
"~  c #F98D02",
"^  c #F58E0A",
"/  c #FA8D0A",
"(  c #F58601",
")  c #EE9207",
"_  c #F59202",
"`  c #FB9302",
"'  c #F49B01",
"]  c #FA9B01",
"[  c #F4920A",
"{  c #FA930A",
"}  c #F89C0B",
"|  c #EB8B18",
" . c #F88B14",
".. c #EB9516",
"X. c #FC9513",
"o. c #FE9B1D",
"O. c #F79617",
"+. c #F6A300",
"@. c #FBA301",
"#. c #FBAC01",
"$. c #F6AB0A",
"%. c #F7AA06",
"&. c #FDB401",
"*. c #FDBC01",
"=. c #FBB80A",
"-. c #FCA519",
";. c #FABD17",
":. c #EFA81A",
">. c #E99621",
",. c #F59A24",
"<. c #FD9D24",
"1. c #FC9C2D",
"2. c #F69726",
"3. c #FF9E31",
"4. c #F38D20",
"5. c #C4BA2E",
"6. c #EBA12A",
"7. c #FBA32C",
"8. c #FBA527",
"9. c #FEA333",
"0. c #FBAA33",
"q. c #FDA53A",
"w. c #F8AA3B",
"e. c #F3B430",
"r. c #D59937",
"t. c #8CC213",
"y. c #96C11D",
"u. c #BBC517",
"i. c #BDC108",
"p. c #9AC429",
"a. c #9CC436",
"s. c #A4C837",
"d. c #B0C631",
"f. c #C4C817",
"g. c #D4CB18",
"h. c #DBD41D",
"j. c #CACC19",
"k. c #FEC301",
"l. c #FDCB02",
"z. c #FBC30A",
"x. c #F9CC0D",
"c. c #F4C906",
"v. c #FAD203",
"b. c #F6D50B",
"n. c #EBCB1B",
"m. c #F8C917",
"M. c #EAD819",
"N. c #F4D617",
"B. c #EDD00D",
"V. c #D5CC22",
"C. c #DAD527",
"Z. c #D8D034",
"A. c #FDCD27",
"S. c #E6D925",
"D. c #F9D826",
"F. c #F9CD38",
"G. c #EADD33",
"H. c #FADA38",
"J. c #E9CA2A",
"K. c #E9E124",
"L. c #FCE33A",
"P. c #F3E31E",
"I. c #99B049",
"U. c #B9BA43",
"Y. c #A8BB53",
"T. c #ACA940",
"R. c #EF9C40",
"E. c #FDAB44",
"W. c #F8AC48",
"Q. c #FCB24B",
"!. c #FAB345",
"~. c #FAAF51",
"^. c #F5B352",
"/. c #FCBA54",
"(. c #FAB55C",
"). c #FAB759",
"_. c #E5AE55",
"`. c #FCBC64",
"'. c #FBBE6C",
"]. c #F8B965",
"[. c #F7BD76",
"{. c #EFBD78",
"}. c #C2BB50",
"|. c #9DC147",
" X c #B6C546",
".X c #ADD345",
"XX c #B0D14E",
"oX c #BAE146",
"OX c #B6CF6F",
"+X c #D7DA46",
"@X c #C9CA53",
"#X c #F9D749",
"$X c #FCC654",
"%X c #FAD652",
"&X c #EBD04E",
"*X c #CCE957",
"=X c #F8E545",
"-X c #FAED52",
";X c #CDD277",
":X c #D2CD6A",
">X c #FBC36B",
",X c #F9C568",
"<X c #F3D869",
"1X c #E7C778",
"2X c #FDCA75",
"3X c #FDCC7C",
"4X c #F9C577",
"5X c #E7D879",
"6X c #EFD36C",
"7X c #CCF465",
"8X c #CEF170",
"9X c #EEE46D",
"0X c #CED786",
"qX c #FBCB84",
"wX c #FCC888",
"eX c #FBD38C",
"rX c #FAD084",
"tX c #FDCB94",
"yX c #FDD393",
"uX c #FDDB9B",
"iX c #FBD498",
"pX c #EAD38A",
"aX c #D4E38D",
"sX c #EFE797",
"dX c #FDD3A3",
"fX c #FDDBA4",
"gX c #FED4AB",
"hX c #FADCAC",
"jX c #FDDCBB",
"kX c #FCDBB4",
"lX c #F3D3A5",
"zX c #FCE5AD",
"xX c #FEE2BB",
"cX c #FEE3B5",
"vX c #FFF6B8",
"bX c #F0F2AD",
"nX c #FFDEC0",
"mX c #FFE4C4",
"MX c #FEE6CB",
"NX c #FFEAC8",
"BX c #FEF4C1",
"VX c #FFF6CA",
"CX c #F7FDCA",
"ZX c #FEEAD4",
"AX c #FEECDD",
"SX c #FBE5D5",
"DX c #FCFDDC",
"FX c #FFF3D7",
"GX c #FDF2E4",
"HX c #FEF3EA",
"JX c #FFFBEC",
"KX c #F9FCE5",
"LX c #FFFBF3",
"PX c #FFF4F3",
"IX c #FCEDE4",
/* pixels */
"f f f f 7 7 7 7 h f r r f f f f 7 6 7 w h 7 f t f r 7 f f 7 7 f f d f f f 7 t x v v A A S U OX8Xy.c f f f h f 7 f f f f f 7 d f ",
"f f f 7 7 w 7 h f f f f r f f f 7 7 7 7 7 f f f t : : f f f 7 f j f h f f 7 7 7 t f v J A A U s.b f d 7 f f f f f f f 7 f f f f ",
"f d f 7 9 9 7 7 f f f j f f 7 d f f f f f h h h d f f f k f j j f j f d 9 9 7 6 8 0 6 h f 6 6 f h f f f f f f h f f d f f f f 7 ",
"f f 7 7 9 7 7 h 7 f f f f f 7 7 j j f j f k k c f f f f j k j j h f d 6 9 7 9 0 0 5 5 0 0 9 9 h h h c f f f f f 7 f f f f f f f ",
"f f 7 7 9 9 7 7 7 f f f f f 6 6 f f f f f f 9 h 6 6 7 d d j d d k k t d j f d 8 8 8 8 9 9 7 0 7 f f f f f f t 7 f f f f 6 f f f ",
"f f 7 7 7 7 7 f r f j d d f 6 7 7 f f f f 7 6 6 6 f d 6 d 9 f f u f r r d j d d h j h 6 7 7 7 > 7 f f f f f h f 7 d f 7 f f 7 f ",
"f j f f 7 h f h f j k u f f 7 7 7 7 6 7 d d f j d f f j f h h f x f t f r j j j G F k t f p v x f f f f h b h f f f f f 7 f f f ",
"f f f f f f f j v k k j u f h c h 7 f f d f k z r j k f f h x f 7 w f f f d j k j j F k J v v t v f 7 f h h f : f f f f f d f f ",
"t k t r z : k k u k F i G j h t t k h r t j k b k u J A r E  Xu > 7 7 7 7 d d f z d r t > x x 7 f f f f f 7 f f f f h h f f 7 f ",
"u k k k b K L y F a.a.J J L b : $ f b h h h f k k v J i L XX*XD v x 7 x x b h r d : g b h 5 6 7 7 f 7 f f f f d f f f f f f t d ",
"F j r k r u F k F *X8X.Xy F j x z f 7 7 x 5 - w > > p s D D W D s u a t u u a i v h f 6 9 t.t.$ d f f f f f f 7 7 d 7 f f f 7 f ",
"u r K oXp.r y u a.7X8X.XF v k : 6 c 7 $ 7 n c , a s D W E U.Y.@XU.@X XE T T s s p n y.f % 8 t.8 6 f f f f f f f f f f : f f f f ",
"k t K oXp.f u F y .X*Xa.y $ t b 5 9 w c v y u A I  X@X:X5X9X5X6X6X<X<X<X<X&X+X5.E M p v x : * g h f f f f f f f h f f f f f f f ",
"b f r h r f v k k F H i J b c - t.c c k S P Y.0XsXbXsXpX1X1X1X6X).)././.$X$X%X%X%X5.M s v z j : f d 6 6 f f f 7 h h f 7 f 7 f d ",
"t f > f k x b r y k u r f f f 7 : b S & I.aXCXDXJXFXDXFXVXzXpX_.W.2.2.2.....e.e.F.F.Z.V 4 p v k f f : 7 7 f f 7 f f f f f d 7 f ",
"7 h 7 : b > k k y G j k t x 6 f Y & & OXCXKXJXLXPXPXHXSXmXmXkXwXw.| | | O.[ ) } :.e.F.J.C M p t h d : r r f f f 7 f f f f f f f ",
"h 7 6 f x x t & * & * z w > 7 d H P OXCXKXKXKXPXGXAXZXNXmXnXjXgXwX~.>.| ! ` _ _ _ $.$.;.;.V.C < h g d b t p > n 7 9 9 h h f f x ",
"9 8 7 f p v f d * * d h c n b A P 0XCXCXKXLXLXKXFXZXNXxXjXjXjXgXyX].w...! ~ ~ ` _ ' +.$.;.;.f.V : d z x t x v x h 9 g 8 g f t v ",
"9 7 f f f x f k z g d g c k u S OXCXDXKXKXLXIXIXZXmXxXzXfXfXiXiXrX2X/.,.^ ! _ ! ` ] ' +.$.n.n.V.q - c 7 p p b 7 h 7 g 6 f t f v ",
"7 f f f f f k b v v 8 8 g d S I.CXKXKXSXLXPXSXSXmXxXhXuXuXyXeXwX4X2X>Xq...Q ! _ _ _ _ ' %.=.n.n.u.e e e x > f f h g f h f f f f ",
"7 f v f f 8 d h v v 6 6 l A Y.0XDXJXJXGXIXAXSXSXjXkXfXyXeXrX3X3X,X,X].W.2.| _ _ _ ` ` _ @.#.*.B.S.B 2 q 3 > 6 j f f f h h f f j ",
"7 f x k 6 8 7 f a t 6 8 j U 0XVXJXHXHXGXSXSXMXjXkXgXiXtXrX3X,X,X,X].).Q.9. .Q ' ! _ ` ] ] @.&.c.M.g.N q ; h d j j k t r r t f g ",
"7 t f k f 6 6 f v t f 7 j |.aXFXGXAXSXFXmXxXhXlXgXdXtXtXqX2X,X].].^.~.Q.q...Q _ _ ~ ~ ~ ] @.&.*.B.S.f.2 ; h g l j k t > : f g g ",
"7 f j f h 9 8 7 t f x p J :XbXFXZXGXZXjXhXzXfXfXtXtXtXwX[.'.,X).^.W.E.E.3...) _ _ ~ ~ ~ _ ] @.*.*.N.n.m e 9 g g j k a t t h g d ",
": f v J x 7 6 6 d j x p 5.pXlXFXZXZXmXhXlXsXuXeXtXtXwX[.[.'.).^.!.!.q.3.3.O.! ) _ ! ! / { _ @.&.*.x.B.f.< 9 * l k j k p f f d g ",
"7 d j d > > 7 7 d z p T :X5XlXVXmXmXcXfXuXeXrXrXqX3X[.].'.).^.W.w.0.1.1.<. ._ ) ) ^ ^ / ~ ] +.#.*.z.N.g.q 6 d g j k a x x f g * ",
"j f d 6 > > 7 f g v = T.1X1XpXcXjXjXhXfXiXrX3X3X4X'.].]./.Q.w.0.0.7.<.<.o.! [ _ ! ! / / { _ +.#.*.z.N.V.N 9 8 j f j v p h f g 8 ",
"f f f h f f f f h L D @XrX1X4XuXkXgXdXiXeX3X4X2X'.`.(.(.Q.w.w.0.0.-.o.o./ ! _ ! ^ ^ ^ / ! _ +.#.&.z.B.S.u.e f f j f f v x f d d ",
"j f d h f f f d : p D :XwX{._.3XiXdXtXwXwX4X>X'.(./.Q.!.q.0.0.8.7.7.X.X.{ ~ ` ~ [ ! ~ ~ _ _ ' %.&.z.n.S.u.; 7 f d f h x k f f f ",
"j g 7 7 d j f f w a W ;XtX{.r._.eXyXwXqX4X4X].(.).W.!.w.7.0.0.,.| <.X./ ` ~ ~ ! / / ~ ~ ` _ ' $.=.z.n.G.j.< 3 f f f f f f f f 7 ",
"k h 7 6 d j j x u.Z.T.pXzXtX6.6.>X3X3X2X'.'.].~.~.E.q.q.7.9.9.| + ,.X.~ ` ~ ~ / / ~ ~ ~ ` _ +.$.;.m.A.L.V.< x 7 f d f f f t f f ",
"f f 7 d j j d > K d.P pXBXiX~.>.W.).>X`.].(.(.W.E.q.q.9.2.3.1.# X 4.X.~ ~ ~ ! ` ~ ~ ~ ~ ` _ } $.z.A.D.L.Z.2 n t f f f f f f f f ",
"7 7 j u t f f f n u u aXvXdX~.2.| 9.Q.$X).~.E.E.q.8.,.0.4.O o o X O o @ X.~ ~ ~ ~ ~ ~ ` ` _ @.$.;.F.#X=X+X4 x b f f 7 7 f f t f ",
"0 7 j y t f w f j j y ;XBXdX].2.[ X.8.w.!.Q.E.q.1.8.8.o.1. .# . . o #  ./ ~ ~ ` ~ ~ ~ ~ _ ' @.$.;.F.H.-X+Xs x h f f 7 7 7 h j j ",
"7 f d t 6 7 3 f : G i OXVXdX`.2.O.^ ....7.w.q.7.<.-.-.O.<.<.O . X X  .o.~ ` ` ~ ~ ~ ! ` _ ' @.&.m.F.=X-X+Xn b f f 6 7 7 f h f k ",
"f f f 7 7 7 f > f z S XXFXgX`.6.[ ! ) ..>.>.,.o.o.X.} Q X. .O @  .o @ X.~ ~ ~ ~ / ! ! _ ' ' %.=.m.A.L.-X+Xn t j f d 6 7 f x k f ",
"j f 6 7 7 7 p w h z r |.CXkX>Xw.{ ` _ ) ) | ) O.` ! ' ) { ! @ o.<./ ( { ] Q ! ` ! ! ! [ ' ] &.=.A.A.L.=Xf.a t j l f 6 7 f f f f ",
"k t 6 7 f f f f 7 8 j I.BXmX4Xw.o._ Q ^ [ [ ! ! _ ! _ Q ` { ~ X./ { ! ` ` ! { / / ^ ^ [ } %.&.=.m.D.L.G.V t r z l g g f 7 x f f ",
"j d d h k k t f 7 6 z Y sXBX3X/.8.{ ! ! ^ { ~ ~ ~ ` _ _ _ ` ~ ~ ( ~ ! ! ` { ` ! / ! [ } +.#.*.z.N.N.H.C.2 3 t j l g f 6 f 7 f f ",
"x f f G J A k x 7 6 z i 0XBXeX>X8.X.[ [ ~ ! ~ ` ` _ ! ` ~ ! ~ ~ ~ ( { ` ( ! ~ { / { _ @.@.#.*.k.x.N.S.f.= ; d * g j d 7 f 7 x f ",
"7 x H & P Y K t f h $ u Y.vXsX3X!.8.O.[ [ ~ ~ ` ~ _ ~ ~ ` ~ ~ ~ ~ ~ ~ ~ ~ ~ ! / _ _ ] @.#.*.k.l.b.N.S.m 3 f d z l d d 7 h 7 f f ",
"7 7 & a.|.Y k k k : 6 f P ;XvXrX/.7...) { ! ~ ~ ~ ! ` ! / ! ! ~ ~ ~ ~ ~ ~ ! [ ~ _ _ @.#.&.*.l.l.N.S.f.N e f d l g g 7 h 7 f f f ",
"w - U 7X8XU u a k r 6 d i XXvXuX,X!.8...{ ` ~ ! _ ! _ / [ ! [ ~ ! ~ ~ ` ! _ ` ' ] @.#.&.k.l.v.b.M.C.m N w f g l d g f f f f f j ",
"9 > a.8X8XU t t k z 6 8 K I :XsX9X$Xe...[ ] _ ! _ _ ! / ~ ! _ _ ! _ ! _ _ _ ' ] @.#.&.*.k.v.v.B.K.j.2 1 7 d d l d d 7 7 7 f j f ",
"x k z .X|.F u v v K h 8 b A D :X9X%X!.:.} ' ] _ _ _ _ [ ! _ _ _ _ _ _ _ ' ' +.@.#.*.*.z.l.b.b.P.j.N 1 5 z d * g 7 7 7 7 x f j j ",
"u k d f H j x x a j h 8 : v p R 9X9X#XA.$.%.+.' ' ' _ [ ` _ _ _ _ ' ' ' +.+.#.&.*.*.k.l.b.N.M.M.t.; 9 6 y.l * j f 7 w w w f j j ",
"A J 6 8 f f x w k : d 8 d f n 3 d.+X#XF.;.$.#.+.@.} ] } { ] ] @.@.+.@.%.#.&.&.*.k.k.l.b.N.M.h.i.1 - w h l l d d 7 7 w w x k j k ",
"A k 6 9 h f w 7 n h d % p.$ n w i E &X#XA.z.=.&.#.#.#.@.@.@.#.@.#.#.%.&.*.*.k.k.l.l.b.B.P.C.i.< e c 6 z * d z r 7 w 7 w f f j k ",
"j f f 7 f f 7 7 f f f 6 f h f x b > 4 Z.L.D.c.=.*.*.&.&.&.&.*.*.*.*.k.k.k.k.l.v.v.B.M.K.j.N 1 w 7 f f f f d d f f : - : k f u d ",
"f f f f f f f d d 7 d f f 6 f 6 $ f x N C G.H.m.x.k.k.k.*.k.l.l.c.c.c.v.v.v.v.b.b.P.K.u.q 7 7 d f f f f f f f h f 6 6 f h h f f ",
"f f f f f f f f f f f 7 f f f d k d v 3 s M C.S.N.N.x.x.x.x.x.c.v.v.v.b.b.b.M.B.h.j.u.2 3 x b j f d f f f c h h f 7 6 f h f f f ",
"7 f f 7 7 f f f > d f f f f h f r t b r V < M C j.h.S.D.S.D.N.m.B.b.b.M.P.K.S.j.B N 1 w x b v f f f 7 f 7 f 7 h 7 7 7 f f 6 f f ",
"f f f f f f f f : : 6 6 > f f f r y u L *Xs.> w < m B u.g.C.G.G.S.M.S.g.f.B 2 , 7 - 7 b b 6 6 x 9 7 7 7 6 9 7 f 7 7 7 7 7 6 6 7 ",
"h f h f f 7 6 f 6 t f 7 f f f f v j y p.7Xa.$ z h x e 2 < m m M B M m M 2 , , d d g g h 6 6 7 7 h 7 f 6 7 f f 7 f h h f f 7 7 7 ",
"f > f f f f f f f f f f f h f f r J j & G G & & j j 6 7 1 3 4 V Z Z s s p : 8 l t.g % % 8 h h 6 7 f f f f f f f h f f f f f h f ",
"$ : : f f f f 6 f f d f f f f f z r d G G H H H j l d f f w w x s R R s t k h % % 8 8 8 d 6 d f f f f f f j h k f f r f f f h 7 ",
": f h x f f f f f f f f 7 d f 7 7 7 f j j j j H d j j h h 8 6 7 K d.d.x > x c 6 c $ j h j z r j d k k f k k j j r j b z r t h f ",
"f f f f f f h h 7 f f f f f f 7 0 0 f f k k k j j f d d g g g g 6 w c - - 7 x f v : f f f j h b f f t f v k k K s.J r r j k k k ",
"f f f f f f 6 : f d f f f f f 7 0 9 7 h v u v t h f 6 6 6 % * g 0 0 7 7 > t v p t t v f f f 6 6 f t r j z k F p.7Xs.k k b k f r ",
"f 7 f f h f : : f f f 7 f f f 7 9 9 7 x b x x t f 3 > 5 - 8 8 8 9 9 6 7 f t v a a p v x 7 7 9 5 f f f k k y j L oXp.j k k r f h ",
"h f f f h h t : f f f f d f f 7 9 7 7 f f f x h x f 7 7 f f f j d d 7 d f u v a a k t > - 7 9 9 6 h h t j k t k j r r f f r f c ",
"z f : 6 7 f h f f 6 f f f 7 f f f 7 7 7 t f f f 7 7 7 f f f f f h f f f f f j d f h h b 7 7 7 : 6 f f r f h f r k k k b f f f 6 ",
"f f : : 6 d f f f f f f f f f f f f f j d j g g 6 6 7 7 f t u k b x h h 9 8 9 6 8 g k K F y L L f 7 7 7 c k d t f t f 7 7 7 7 6 ",
"f 7 f f f f 7 6 f f 7 f f d 7 f f f f j j g g * g g g f f v a a > f 7 6 0 0 0 0 t.l j G S Y OX7Xn 9 6 h b h r h h f f f 7 0 7 9 "
};
