/* XPM */
static char *_4e39f8e2a7e43c097497756effeec99Bnhx8mNbpr8Vp3aY[] = {
/* columns rows colors chars-per-pixel */
"64 64 247 2 ",
"   c #1D130D",
".  c #1E1712",
"X  c #141000",
"o  c #2A1906",
"O  c #321C03",
"+  c #281916",
"@  c #341C17",
"#  c #230C16",
"$  c #152200",
"%  c #1C2900",
"&  c #252A06",
"*  c #362508",
"=  c #293608",
"-  c #2B241C",
";  c #34221B",
":  c #3C241C",
">  c #362619",
",  c #2D3417",
"<  c #343B18",
"1  c #2C1A22",
"2  c #292722",
"3  c #3D2A24",
"4  c #382A28",
"5  c #383627",
"6  c #393734",
"7  c #352F2B",
"8  c #412B18",
"9  c #473415",
"0  c #492B12",
"q  c #422D25",
"w  c #452F2A",
"e  c #48342A",
"r  c #453B36",
"t  c #52382C",
"y  c #663D2A",
"u  c #663E34",
"i  c #703E33",
"p  c #3A471B",
"a  c #364405",
"s  c #3C4627",
"d  c #3D4133",
"f  c #445517",
"g  c #52661C",
"h  c #444F2A",
"j  c #465428",
"k  c #49443A",
"l  c #495437",
"z  c #535A39",
"x  c #584D31",
"c  c #68432E",
"v  c #6C4434",
"b  c #6D453B",
"n  c #6F4B3C",
"m  c #674738",
"M  c #724635",
"N  c #744A35",
"B  c #74463A",
"V  c #744C3B",
"C  c #794B3C",
"Z  c #7A4836",
"A  c #77513B",
"S  c #704C36",
"D  c #576731",
"F  c #657D27",
"G  c #667A35",
"H  c #60791D",
"J  c #483A44",
"K  c #3D4140",
"L  c #4C4845",
"P  c #574A44",
"I  c #545648",
"U  c #5A5856",
"Y  c #4F5247",
"T  c #684C45",
"R  c #744B42",
"E  c #7B4D43",
"W  c #78444A",
"Q  c #735243",
"!  c #7B5243",
"~  c #79594A",
"^  c #655A55",
"/  c #765A54",
"(  c #6B524E",
")  c #5B6645",
"_  c #5F6157",
"`  c #646C4B",
"'  c #78694A",
"]  c #69734E",
"[  c #79734D",
"{  c #66685A",
"}  c #75665B",
"|  c #747757",
" . c #677555",
".. c #6F5D62",
"X. c #6C6863",
"o. c #776A68",
"O. c #767869",
"+. c #7B7876",
"@. c #766A70",
"#. c #5C5B61",
"$. c #815437",
"%. c #845C4B",
"&. c #8B5D4D",
"*. c #86564B",
"=. c #8C5E53",
"-. c #875F56",
";. c #915F53",
":. c #85614D",
">. c #8C634D",
",. c #876745",
"<. c #92654D",
"1. c #82744E",
"2. c #846154",
"3. c #8C6353",
"4. c #8D6955",
"5. c #8A6859",
"6. c #926454",
"7. c #946955",
"8. c #93655B",
"9. c #956B5C",
"0. c #9A6D5E",
"q. c #996758",
"w. c #877758",
"e. c #95725E",
"r. c #9A725D",
"t. c #A16E5C",
"y. c #A3725E",
"u. c #8A6B66",
"i. c #946D62",
"p. c #9D6E62",
"a. c #99696A",
"s. c #8A7469",
"d. c #957363",
"f. c #9C7363",
"g. c #94746B",
"h. c #9C746B",
"j. c #997A68",
"k. c #847A75",
"l. c #997972",
"z. c #9E6971",
"x. c #A26E62",
"c. c #A16F68",
"v. c #A27364",
"b. c #A4756A",
"n. c #A57A6B",
"m. c #AA7A6B",
"M. c #A77767",
"N. c #A67A73",
"B. c #A06C73",
"V. c #7EAA0C",
"C. c #7DA807",
"Z. c #7DA415",
"A. c #6A822C",
"S. c #698325",
"D. c #6D8432",
"F. c #6D833A",
"G. c #738B35",
"H. c #71863C",
"J. c #74893C",
"K. c #7B9636",
"L. c #76912B",
"P. c #749900",
"I. c #768B44",
"U. c #7A8C4F",
"Y. c #788365",
"T. c #7E8276",
"R. c #84AC04",
"E. c #84AD0D",
"W. c #89AE0A",
"Q. c #80A70E",
"!. c #86B505",
"~. c #8AB505",
"^. c #86B30D",
"/. c #8BB40D",
"(. c #8BB90C",
"). c #8AB804",
"_. c #92B80D",
"`. c #85AD13",
"'. c #89AD13",
"]. c #85AC1C",
"[. c #8AAE1B",
"{. c #85A616",
"}. c #86B213",
"|. c #8AB413",
" X c #8CB813",
".X c #8BB41A",
"XX c #8DB91A",
"oX c #86B31A",
"OX c #91B613",
"+X c #92BB15",
"@X c #91B61C",
"#X c #92BA1B",
"$X c #99BF19",
"%X c #829C33",
"&X c #8AAD24",
"*X c #8AAB29",
"=X c #8CB223",
"-X c #8EB22A",
";X c #8FBA23",
":X c #92B525",
">X c #92B42C",
",X c #95BA2C",
"<X c #95BC25",
"1X c #8AA838",
"2X c #9ABC34",
"3X c #96B836",
"4X c #91AE2A",
"5X c #95C213",
"6X c #98C326",
"7X c #9DC137",
"8X c #A4C838",
"9X c #A8CA33",
"0X c #859C49",
"qX c #869155",
"wX c #8CA846",
"eX c #98B547",
"rX c #93A84B",
"tX c #858579",
"yX c #92867D",
"uX c #8E9273",
"iX c #AC8277",
"pX c #AA8271",
"aX c #A0AA79",
"sX c #A8C945",
"dX c #B5DA50",
"fX c #BCE154",
"gX c #CEF070",
"hX c #8B7D81",
"jX c #7D8182",
"kX c #8A8785",
"lX c #96978B",
"zX c #9B9894",
"xX c #948B84",
"cX c #AC958D",
"vX c #9FA29A",
"bX c #A4A797",
"nX c #AEB397",
"mX c #A9A6A5",
"MX c #B3B3A7",
"NX c #B7B4B3",
"BX c #B1B1A8",
"VX c #C3BDB9",
"CX c #BEC1B6",
"ZX c #C4C8B9",
"AX c #D7F382",
"SX c #C5BFC1",
"DX c #D1D1CA",
/* pixels */
".X.X.X}.~.).)./..X*X&X[.}.^.(.!.(.(.(.(.V.5X X X+XW.@XQ.XX}.}.}.XX}.^.5X!.XX}.XX;XC.OX#X{.4XgXAX>X.X/./.(.).!.~.|..X=X[.[.}. X~.",
"|.|.|.|.~.).). X.X=X[.[.^.(././.}.}.(.}.5XV.E.}.W.P.@X;X.X,XZ.,X=X-XoX}.XXE..XXX}.#X/.W.@X[.1XsX&X.X}.^.(.(.~.~.}..X[.=XoX.X|.(.",
"/.|.|.|.(.(.(.(..X.X.X|./.~./.}.6XV.V.V.V.5X;X6X[.:X@X[.*X1X1X1XwXwXwX1X*X-X;X'.R.5XR.R.OX|.=X]..XoX X}././. X|.|..X.X.X|.|././.",
"~.^.|.|.|./././.}..X}.|.(.(.|.}.oXZ.6X5X5XV.Z.;X>X4X>XL.%X0XD G D j G G J.1XK.3X&X.X}.5XOXW..X.X.XXXXXXX|.|.|.|.|.|.oX|.|.|.(.^.",
").~.|.|.|.|.(.|.|.|.^.(.~.(.|.}.^.5XV.5X^..XXX[.1XL.G uX$ ) nX] 5 qXnXbXT., p F.I.eX*XZ.oXXX X}..X.X.X.X|.'..X}..X|.|.|.|. X^./.",
").).}..X|.|.|.(.'.|.^.(.!./.|.}.^.^.V.V..X=X*X%Xp G nXvXX.. k k * 5 r r L - lXuX= g rXeX3XoXV.!.}.|.|.|.|..X.X.X|.}././././.|.|.",
").~..X|.|. X/.|.|.|.|.|.(./.|..X^.}.XX;X=XK.G.U.p bXlX^ . + * O o * o @ ; ; xX^ L , _ G 1X*X~.5X(.|.|.OX@X#X.XXX|.|.|.(.^./.|.}.",
"~./.|..X|./.(.|..X=X.X}.^./..X.X<X.X=X*X1XI.lXVXY + 4 # e ~ g.1.m j.w.u.~ : X 3 . hXBX, g wX.XR. X|.^./. X|.|.'.|.|.~.).(./..X.X",
"'..X'.`. XR.OX|.].=X=XoXoX|..X.XOX{.3XrX* | zX#.1 # 3 m pXe.i.9.A f.d.d.d.m Q e o @.@.U < = eX*X{.'._.~.R./.#X'.|. X(._.)./.|.=X",
"[.XX[..X+X+X$XE.&XsXeX*X[.6X.X`.Q.4XrXqXaX4 J # J / / V e.d.n.=.b h.N.f.8.B f.d.Q @ 1 4 - lXqXrX2X{.OX_._.~.^.@X}.|./.~./.|.oX[.",
"=X[.`.@XW.!.OX X*XgXgXdX]..X|.[.4X%Xa [ xX6 # ..g.l.i.! 3.~ n.8.W N.N.B.a.W N.v.2.m 2.  k.zXo.D G.>X'./._.).^.OX|.|.^.~.(. XoX=X",
"[.'.$XdX6X^.W.[.2XgXgXdX:X:X`.&XeXH.aX` 4 w T u.N.p.*.E ;.B v.0.Z b.B.B.B.W B.p.7.Q j.2.4 . J - g eX{._.~.~.+XW..X|.^.~.(. XoX[.",
".X[.,XfX6X/./.|.].dXfXsX`.Q.'.eXU.l BXnX# w ( a.a.p.&.$.<.$.y.>.M M.y.y.7.N m.m.>.c e.w.t ; xXMXD 0X1X@X_.~._.'.;X.X|./.(.}.oX.X",
" X|.`..X`.`.#X|.-X&X*X].[.@X:X1XY.U - Y e T b 8.b.v.<.$.,.A y.<.A M.pXy.<.N v.M.9.B j.w.x t kX@.5 g eX{.OX_.R.OX=X.X|./.^.!.}.}.",
"~./.|.[.XX@X#X`.=X{.=X`.|.'.=XL.U.DXo.+ w u.R ;.iXy.<.Z 8.~ i.i.m e.e.r.t.Z b.a.-.b 9.j.x @ 4 1 Y s 0X%X'._.E.|..X=X.X(.^.!. X}.",
"/. X|.'.@XE..X.X.X{.<XE.|..X*XH nX+.X.1 ( l.E ;.m.t.<.Z n.h.h.5.V f.r.e.7.N v.z.8.W f.5.m T 1 +.NX{ g 3X@X_.'..X[..X X X(.!.}. X",
" X/.'.|..X|.^.E..X`.Q. XOX2XG.h { k   w l.h.B 3.m.m.;.V h.v.f.8.n e.f.r.7.C 0.v.;.M v.p.R u.q T 6 5 % K.,X/.#X.X.X|.OXOXOX|.^.|.",
" X|.|.|.|..X/.^.'..X/./.OX>XI.` lXkXr 4 h.a.v i.m.b.=.B v.p.x.q.V e.r.%.3.N 0.y.q.E 9.E b h.: P k.tXs A.-X^.}.XX X X/.|.|.|.^. X",
"/./.|.|.|. X|. XXX[.W.$X$X&XG uXDXzX7 q l.b.B -.b.v.2.n v.x.f.6.N f.9.v >.V y.r.;.Z =.v ~ g.: xXDXtX= D.,X#XXX}.#X(.|./.|.}./. X",
"|.|.|.|.}.|. X XoXXXE.!.$X7XG z T.Y . 4 a.p.R 5.x.v.2.Q v.p.y.6.M f.e.c 7.C r.f.0.B 8.T m s.@ P tXY $ G.-XC.oXoX|./.OXOX X|./.}.",
"^. X XoX}.}. X XoX.X|.W.V.7XI.d U U 4 q N.v.b 3.x.v.3.R M.v.x.6.V f.r.c r.M r.v.*.B i.b ( k.@ r U _ = G.2XE.V.oX|. XOX|. X|.|.^.",
"^.^. X X}.}.^. XXX`.^.$X!.-XI.) CXzXr q g.v.B 3.x.x.=.A m.v.v.6.V f.0.c 9.v 9.n.0.R -.m ( s.k lXDXzXp A.;X}.XXXX|./.W.W.E.^. X X",
"}.}.^.oX}.}.^. X.X.X^.^. X7XF.s U 6   w h.p.R 3.v.v.%.A m.v.v.6.C f.0.v 6.v i.v.8.u g.g.o.yXY r Y 5 $ G.-X^..XV.|./.W.W.E.^./.|.",
"5X}.oX XXX}. X^.'.;X^.^. X-XF. .vXkXL w g.p.S 7.v.f.2.B m.m.x.;.M r.r.M 7.V r.i.-.! } / u.{ 4 o.U { s G.-X|..XXX|./.OX/.'.|. X^.",
"V.V.5X5X.X|.^./..X`.W.|. X>XF.O.CXvX7 4 i.f.C >.y.v.:.A n.v.v.6.B v.f.v 3.A 0.f.5.R / T ^ ^ J U @.lXp A.,X|.}.oX X^.OX|.|.|./.|.",
"V.5XoXV.E.`.^. X@X'.+X^.R.2XF.s { K + r h.B S 3.y.x.%.Q m.v.v.q.C f.0.v 6.V f.f.3.b -./ P ( 6 2 K d $ D.>XE.XXXX|./.W.OX'././.|.",
"^. XoXV.E.E.W.OX'.@XOXW./.2XI.) kX@.6 w d.v S <.y.v.2.A M.b.x.6.C f.9.M 3.C 0.p.8.R l.s.T k.2 } kXT.= D.,X}.}.oX^./.OX/. X|.|.^.",
"(.}.XX5X@XOXW.OX@X<XW./. X*XF.Y.DXmXr 3 i.A c 7.y.y.:.A M.v.x.8.B f.9.E 4.B 9.r.8.i N.i.( l.+ kXCXbXp A.,X|.}.}.|./.|.OX X|. X^.",
"V. X XXX X|.OXW.@X'.W.OXW.4XI.l jXU . e g.C c <.t.y.:.n b.f.x.6.V h.f.3.9.B f.v.;.C a.i.T u.q r kXY $ D.-XR.;XoX|./.OXOX|.|./.|.",
"(.}.oXXX|.|.W.OX{.@XOXW.OX2XF.s 6 U 6 3 n.*.N >.y.y.:.A v.v.x.6.B j.f.9.f.M 0.v.;.C b.a.T u.3 U k.{ < D.-XR.}.XX'././.OX|. X^.^.",
"XX XV.oX|.OXOXOX9X9XOXW.$X4XG x _ mXX.; l.v.A >.t.y.,.A v.0.v.6.b f.d.9.9.M 0.v.;.i N.a.W g.O l.ZXMXD D.>X}.}.}.|.~./.'.^.|. X|.",
"^. X5XV.[.'.W.W.9X9XOX_.W.4XqXx vXmX6 e h.p.c <.t.y.:.V v.0.y.6.V f.9.p.0.M 0.f.6.M m.N.b g.: o.VXlXs A.-XXX<X.X|.|.OX/.|.|.|./.",
"|..X.X[.@X@XOX/.|.#X|.^.OX,XD.j O.d + q h.v.m 6.p.v.2.A r.q.v.6.V 9.v.0.0.B 0.v.3.M m.b.n l.; k X.2 X J.>XoXXXoX.XXXOX/.|.|.^.^.",
"^.|..X[.[.'.W./.|.|.|.^.W.2XH.z T.X.r e i.M.R =.b.h.%.Q h.v.v.>.V f.v.x.8.B r.f.4.v m.v.B g.> P J O.p D.3XoX6X}..X|.W./.OX[.|./.",
"^./.OX[.[.'./.~. X|.^.|.|.4XI.| CXMXP : h.a.u 8.x.c.3.Q v.f.v.6.V e.M.x.0.B p.d.9.y M.n.R u.q k.@.T.p G.fX;X}.}.oX|.W.OX|.|.|.|.",
"!.(.'.'.[.OX~.~. X|.}..X|.>XI.` tXU 2 e l.N.5.*.8.8./ b p.0.f.8.V r.M.x.x.B e.r.7.y M.M.R i.: o.kXL & wXgX6XV.XX.X}.^.W..X.X X X",
"!.!.).|.'.OX/.~.|.#X X}.'.3XG h d 6 . e g.iXh.0.a.;.R m f.v.f.3.V p.m.M.p.B 0.f.>.M m.7.B l.@ k U 2 % A.7XV.oX^..X|.W.OX|.|.|.|.",
"!.!.|.|.OX'.~.~. X}.}.|.[.3XI.` zXlX6 3 h.a.! cXb.x.-.( h.p.p.8.V x.M.x.0.B 9.r.4.M M.9.B h.: { vXT.s D.3XV.6X X.X|./.OX.X.X|./.",
"~.^.|..X@X'.~.(.|.}.}.XX.X4XI.Y.CXT.6 t g.i.b i.b.b.5./ n.p.p.9.V r.m.x.0.B 0.f.4.v x.p.R s.: k.SXkXa F.7XV.oX}.@X|./.W.|..X|.^.",
"(.|..X:X:X.X/.|.E.XXXXE.'.2XF.h U 6 . 3 h.N.b ! =.=.Q Q h.p.f.3.B f.b.x.0.M r.j.:.B M.6.R h.@ L #.7 $ F Z.;X}.oX.X|./. X|.|. X|.",
"}.XX&XZ.-X=X#XR.}.;X`.`.|.3XD.z vX+.r e l.i.E 5.0.=.-.T f.M.8.7.S f.M.m.0.i m.9.:.A v.0.b l.@ P hXO.s S.2X}.XX}..X|./.OX|.|.|.|.",
"oX[.*X7XsX*X|.|.oX}.C.XX.X4XJ.uXCXmXY 3 l.n.v 5.v.p.2.Q h.p.p.8.S f.m.v.8.M v.%.C V 0.3.R g.@ k.NXnXj S.,XoX^.XX|.|.W.OX|.[.|./.",
"-XZ.7XgXgX2X'.|.oXXX}.XX.X2XJ.` BXkX5 3 N.iXu 6.M.m.2.Q v.i.x.8.B f.v.M.0.M r.~ v C M.f.E g.o } mXT.= D.>XoX^.V.'.|.|./.|..X|./.",
"oXoX7XgXgX7XE.|.oX[.}.|.E.*XF.] lXY + w h.n.M 9.0.0.:.n n.i.x.6.B v.x.M.0.C v.~ V v v.q.u h.3 } lXI % J.-X}.6XXX|.|./.OX|.|.|.}.",
".X.X,XsX8X:XW.OX.X6X6XE.'.sXH.= r 2 - e pXb.v >.q.*.&.n v.x.p.q.V r.x.x.0.C b.%.N N m.v.b g.+ r U 6 % S.2XE. XC.|.|.W.OX.X|.|.|.",
"}.XX[.&X&X[.OX X|.}.oX|.'.*XH.` { k.^ : N.v.N 6.<.Z >.A f.p.v.7.V r.0.x.0.B f.%.S V 0.6.B h.> k.mXnXD S.7X.X XXX|.|.OX/.|..X|.^.",
"(. X|.[.@X[.OX^. X}..X|.OX3XH.h { kXP q pXm.v <.<.Z :.A 8.*.v.8.V r.f.x.q.B v.~ S A M.p.! g.@ k.MXbXj S.7X|.^.}.'.|./.OX|..X|.|.",
"!.(.'..X@X/._./.#X}.|.|..X4XI.l lXk.> q N.y.N 7.q.Z %.*.;.M v.6.V r.x.v.x.i v.*.V v v.i.u k.w o.NXO.= D.-X}.|.}..X|./. X.X|.|.}.",
"^./.|.|. X(.(.(.|.}.@X`.R.2XH.h ^ 7 + e h.f.Z <.7.N >.V 3.C n.<.Z 0.y.x.0.W v.v.=.W h.g.@.hXU L U - $ G.>X}.5XV.oXV.Q.W.@X.X|.^.",
"|.|..X|.^.(.}.}.XXQ.E.|.$X,XG I kXo.r q g.p.N r.<.Z >.V f.,.v.4.Z y.p.r.p.B c.a.-.T u.u.k.@.6 #.kX+.p S.,X^.V.6XXX}.E.OX@X.X|./.",
"|.|.|.|.^.^. X}.^.XX@X|./.;XI.uXNXNXX.8 g.e.c 7.<.A <.M pX7.r.7.N 0.d.f.9.b f.d.i.u ~ } ( #.K jXmXuXp S.>X XV.^. X}.^./..X|.^.(.",
"/.|.}.}.^.!. X X}.|..X|./.>XF. .vXbX{ > j.j.v ,.<.A 3.M f.r.r.9.N r.f.f.e.v d.f.5.A } m P ^ 2 +.#._ p G.,X5X5X5X}.|./.OX|.}.(./.",
"|.|.|.|.^.(.(.}..XC.E.#X_.>XF.) BXxXP q j.e.N 7.<.N 3.N 0.r.r.<.N y.y.f.t.i p.f.:.y j.j.m o.5 k U _ a H -X!.V.(.|.|.OX/.|.|.^.).",
" X X.X|.(.^.^.}.|.R.@X|.R.,XI.` lX^ 2 e s.e.v 0.>.N <.! 0.r.v.>.N y.M.M.x.i x.v.q.V j.3.T s.3 ^ kXI & D.7X X X}.|.|./.OX|.^./.).",
"^.|..X|.(.^.}.}.|.|..X'.~.7XF.s I 6   e ' d.M <.7.&.6.E v.0.v.6.$.y.M.v.t.Z x.x.q.y m.p.B u.@ J U 2 $ G.>XV.}.}.|.|._./.|.|./.).",
"R.Q.`.}.^.(. X^.}.|.'.|._.,XF. .BXvXP w m 5.B ;.M.M.=.Z M.0.0.q.Z x.M.v.x.Z x.t.;.Z v.%.R B.: u.mXzXl A.>X5X5XoX.X[.'.W.|. X^.(.",
"R.}..XXX X^. X X.X}..X@X~.:XH.| MXmX^ q ~ -.E ;.c.b.;.B N.p.x.6.E 8.j.n.8.R p.v.q.C 3.b b l.@ o.NXtXp A.-X}.6XV.]..X$X@X'.'. X~.",
"|.|..X X(.^. X}.#X}.'.|._.2XD.) bXo.4 w g.a.R 8.c.c.i.E c.i.b.3.B b.iXh.i.b 9.h.=.N &.n ~ 5.@ u.zXU = A.>XoXXX6X9X=XQ.E.'..X X X",
"XX|.XXoX^.^.!.}.^.|.#XW.!.>XJ.] lX^ 4 t l.n.B 8.c.a.-.W c.p.n.8.i h.f.i.h.R p.b.9.A 9.5.( g.: o.zXL = D.7XoXV.8XgX9XXX.X;X.X|.^.",
"|.|.}.oX X(.V.V.|.`.|.|._.;XG h Y 7 @ ; / f.R *.b.x.5.R h.p.e.6.C v.f.p.f.v i.d.&.v f.f.m s.@ P U 6 % A.3XoXZ.6XfX6X|..X.X'.}.(.",
"XX.X.X.X X(. X^.@X|.`. X/.:XJ.) lXX.k ; m w.A >.9.e.%.n pXj.' :.c %.r.pX9.c d.f.9.v M.v u ~ ; ( tXO.f S.-X|. X}.[.`.{.OX|.'.|. X",
"XX|.`.`.^.^. X}.|.|.|.OX~.[.I.| bXX.< & 9 x m 4.j.j.[ A qXA 9 9 9 y ! f.2.A f.e.3.M A 0 t x + s.VXtXa S.,X^. X}.=X.X@X+X.X|.|.!.",
"|..X'.`.^.!.|.}.E.|.Q.|.OX;XG.j l , & & * * O 9 9 * 8 * 9 * O O O O O 9 0 < 9 * * 9 O * * > X z X.< $ S.7X(.^.|.|.'.'.|.}.|.(.!.",
"}.|.oX}. X(.^.^.}.#X|.|.!.>XwX]  .O.| [ | 1.1.1.1.A w.w.' [ [ 1.1.w.[ [ ' w.[ [ 1.qX' 1.| | tXyXO.| I.1X.X(. X|.XXoX|.OX|.|.(.!."
};
