/* XPM */
static char *_0c28b5c42c24370fdede249008ac27e33Gp1Afv87tXGnON[] = {
/* columns rows colors chars-per-pixel */
"64 64 104 2 ",
"   c #7F9F10",
".  c #7CA506",
"X  c #7EA905",
"o  c #7FA60B",
"O  c #7FA80A",
"+  c #7DA512",
"@  c #7BA118",
"#  c #82AD06",
"$  c #83AD0D",
"%  c #89AC0D",
"&  c #89B506",
"*  c #86B20D",
"=  c #8AB50E",
"-  c #8CB90D",
";  c #81A311",
":  c #85AD13",
">  c #8CAE13",
",  c #86AE1A",
"<  c #8BAE1C",
"1  c #91AE12",
"2  c #91AC1B",
"3  c #87B111",
"4  c #8AB414",
"5  c #8DB914",
"6  c #87B21A",
"7  c #8BB41A",
"8  c #8EB819",
"9  c #91B315",
"0  c #91BC16",
"q  c #93B41A",
"w  c #99B61C",
"e  c #91BB1B",
"r  c #99B81D",
"t  c #81A623",
"y  c #86AD21",
"u  c #88AF23",
"i  c #84A82A",
"p  c #89AE2B",
"a  c #97AE22",
"s  c #8DB522",
"d  c #8EB429",
"f  c #92B422",
"g  c #9DB623",
"h  c #94BC23",
"j  c #9DB922",
"k  c #93BA2C",
"l  c #9BBB2D",
"z  c #91B537",
"x  c #95BB32",
"c  c #99BF34",
"v  c #94B938",
"b  c #A4BE24",
"n  c #A0B62F",
"m  c #A4BF34",
"M  c #97C024",
"N  c #9CC426",
"B  c #94C128",
"V  c #9BC32B",
"C  c #9DC436",
"Z  c #9EC538",
"A  c #A4C62A",
"S  c #A9C42C",
"D  c #A3CC2E",
"F  c #A5C033",
"G  c #A3CB35",
"H  c #ABC830",
"J  c #A8C73B",
"K  c #A5CC3B",
"L  c #A7D131",
"P  c #A8D232",
"I  c #AAD239",
"U  c #B0D93D",
"Y  c #9EC340",
"T  c #A2C744",
"R  c #ABCC42",
"E  c #A1C54B",
"W  c #B1CB44",
"Q  c #AED449",
"!  c #B1D442",
"~  c #B4DD43",
"^  c #B0D74A",
"/  c #BBD64B",
"(  c #B7DE52",
")  c #B9DF55",
"_  c #B2D65C",
"`  c #B7E046",
"'  c #B9E244",
"]  c #B9E248",
"[  c #C1D852",
"{  c #C4EE4E",
"}  c #C6ED56",
"|  c #C4EB5B",
" . c #D4EB65",
".. c #CBF166",
"X. c #CFF56C",
"o. c #D2FA64",
"O. c #DAF46C",
"+. c #D1FA6D",
"@. c #D8FF6E",
"#. c #C3E670",
"$. c #CFF375",
"%. c #D0F478",
"&. c #DEFF7B",
"*. c #D3F682",
/* pixels */
"6 6 4 4 = = 4 4 4 6 6 < 6 4 4 4 4 4 7 4 4 4 4 4 * * 4 * 4 4 = 4 = = = 4 = = 4 - 5 3 6 7 s k ( @.h 5 4 3 4 5 4 * 4 4 4 6 4 4 4 4 ",
"6 4 4 = = 4 5 4 4 6 6 < 4 < 6 4 4 4 4 4 4 4 7 4 4 $ $ 4 4 4 4 = = 4 = = = = 3 - 4 4 6 8 6 < k G 7 4 4 4 4 6 4 6 4 4 4 4 4 4 4 4 ",
"> 4 4 = 5 & = 4 4 4 4 6 4 4 4 4 4 4 5 * 4 4 0 0 4 : 4 4 4 4 4 4 = = = = - * 4 - * : 4 7 7 6 , < 7 8 4 4 4 4 4 4 4 4 4 4 4 4 6 4 ",
"4 4 = = & & - - 4 4 4 > 4 4 = * = 4 4 4 4 4 0 e 4 4 4 4 4 4 4 4 4 4 = 4 * - * 4 4 4 : 4 s 7 6 7 4 4 6 4 4 4 4 4 4 4 4 4 4 4 4 4 ",
"* * = & - & = - 4 4 4 4 * 5 * - 4 * * = 4 - 4 4 4 4 6 4 4 4 4 4 5 * * * * * = = 9 5 4 5 3 3 6 8 4 4 4 7 4 4 4 4 4 4 4 3 4 4 4 4 ",
"= 4 = & - = - = 4 4 4 4 4 * = - & * 5 4 4 5 * 4 4 4 > 4 4 7 7 4 4 4 4 * * 4 = = 4 5 9 5 4 4 * 6 4 4 4 4 4 4 4 4 4 4 4 4 4 6 4 4 ",
"4 = = = & = - 5 4 7 4 6 4 4 - = = & - * = 5 4 5 4 4 4 6 7 7 7 7 4 4 4 * % = - 4 = - = 4 4 5 4 5 7 4 4 4 8 8 4 3 4 4 4 4 4 4 4 4 ",
"4 * 4 4 = = 4 4 7 7 < 7 4 4 4 5 9 - 5 - * * 5 4 4 4 4 4 7 7 8 7 4 * * * % = > = 9 5 & * - = - - 5 4 4 4 8 8 4 4 4 6 4 4 3 4 4 4 ",
"6 4 4 : e 3 4 6 < s y , 7 4 3 4 % = = = 4 5 5 5 4 $ 7 4 O G ~ O 4 4 4 * 4 9 9 % 9 # = 9 - * * 0 4 4 4 4 6 4 4 4 4 4 7 5 4 5 4 4 ",
"7 7 e $ 4 7 h s , Z Z s s h 7 * & - = = = 5 4 4 4 4 e 8 8 I ~ h 3 4 4 4 5 9 9 5 1 = - 9 * * - O 4 4 4 4 4 4 4 4 5 4 4 8 4 6 4 4 ",
", : 7 e : 6 s , k | ..T s h 7 $ * * - * * = 4 $ : $ 4 : 3 h N 4 4 4 4 5 9 9 q 9 % 1 w - * - 0 3 4 4 4 3 4 3 3 4 6 4 4 4 6 4 4 4 ",
"s : h ~ V 7 , u x X.&.Q , : 7 4 * 4 5 4 * = * $ 4 8 4 4 7 4 4 6 4 4 5 4 4 > 9 1 1 9 9 1 - 0 M - 4 4 4 3 4 4 4 4 8 5 4 4 4 4 4 4 ",
"7 : e ~ N 7 < < y ^ ) c , : 4 q 4 0 4 4 * 4 4 $ 4 4 4 4 e 5 4 e * - 4 4 5 > 1 q S w 1 q 4 4 3 O 4 4 3 3 4 4 4 4 4 8 6 4 4 4 4 4 ",
"4 : 4 e $ 4 7 6 , d s , 6 6 * 4 4 4 5 4 4 4 5 5 $ 4 3 4 4 4 $ 5 * O 4 5 9 4 q j H q > 4 > 4 4 3 4 4 $ 3 6 4 3 4 8 4 5 4 4 4 4 5 ",
"4 5 4 $ * 8 M s u y , , 7 4 * * 4 4 4 4 4 4 8 4 0 4 5 e q 4 4 4 O O - 5 9 1 2 g r > > > > 4 6 4 4 4 3 3 4 4 4 3 4 4 4 4 4 6 4 4 ",
"4 % 5 * e * 3 6 < f s 6 e 4 & 0 4 4 4 * % 5 5 0 4 * 4 4 4 4 9 > 5 - 8 8 4 > 9 q q 2 q > o : 5 3 4 4 * $ 4 4 4 4 4 4 5 7 5 4 4 4 ",
"q 4 9 4 4 > 4 > 6 O O 4 8 4 > 4 9 = 4 & 4 = * * * & 5 q > w a > 4 3 4 e e 4 4 4 6 > 4 4 3 4 4 4 4 4 8 4 4 4 7 5 8 7 7 e 8 4 4 5 ",
"9 4 > 4 4 4 4 4 8 3 4 5 e 7 > 4 9 9 - = & * & - 0 X . 4 < 2 a g N 8 4 4 7 3 4 7 4 4 4 4 4 4 4 4 4 7 5 7 4 4 4 8 5 4 4 8 4 4 4 4 ",
"4 4 4 4 4 7 4 4 8 O O 8 e 4 4 q 4 4 9 4 O - * - 5 $ $ < 2 2 n m A e $ 3 4 4 4 4 4 4 4 4 4 3 4 6 4 4 4 4 4 3 4 4 4 4 4 4 4 4 3 4 ",
"4 : > 4 4 4 4 4 8 8 8 0 e 4 4 4 > 9 q 4 - 3 O 6 $ 7 7 < l / [ m h 4 4 4 e 4 4 4 4 4 4 4 4 4 4 4 4 5 7 4 3 * : 4 7 4 5 4 4 4 6 4 ",
"4 4 4 3 4 4 4 4 5 O 8 e 5 6 O - : 6 8 8 5 O 3 5 4 8 6 > J O. .n < $ 4 4 7 4 4 4 4 4 8 4 5 4 4 4 4 4 4 4 4 3 * 3 4 4 4 4 4 4 4 4 ",
"6 4 4 4 4 4 4 4 5 6 5 O 3 5 8 6 : 6 6 6 6 6 - 6 6 8 7 < f W W l > 4 3 4 3 4 4 5 6 4 4 e 7 4 4 4 4 4 4 4 4 3 6 4 3 4 3 3 4 4 4 4 ",
"5 6 4 4 4 4 4 4 8 5 6 5 3 3 8 6 6 4 8 8 6 5 8 8 4 6 f 7 ; ; < f 4 3 : 3 4 4 4 4 4 4 8 4 4 4 3 $ 4 4 4 4 4 3 4 4 3 4 3 $ * 6 4 4 ",
"3 3 3 6 4 4 4 4 O - 6 3 3 5 O 8 4 4 O - 6 5 e 0 8 3 > < > < < < : $ $ 4 e e e 4 8 8 8 4 4 $ $ $ 4 4 6 4 4 3 4 4 4 4 4 3 $ 4 8 4 ",
"5 8 8 5 4 4 4 4 4 9 4 4 8 5 O 8 4 4 9 0 5 = * 5 * 4 e 9 4 > 7 1 4 7 $ 4 e : 4 $ 3 4 4 4 4 4 7 5 4 4 4 3 4 4 4 6 4 4 4 4 6 4 4 4 ",
"O 8 5 6 4 > > 4 > 9 4 3 4 6 O 0 * = - - = = * = * 5 5 4 5 q q 4 $ 0 4 0 4 $ e e 3 4 3 4 4 4 4 8 4 4 4 4 4 4 4 4 4 4 4 4 4 4 4 4 ",
"3 3 3 6 > % > > 9 q 4 > 3 4 3 5 = = - = - * & - - * * * 5 8 5 * : 4 4 7 3 $ 4 4 3 4 6 4 4 4 6 4 4 4 4 4 4 4 4 4 4 4 4 4 4 4 4 3 ",
"5 5 6 - 4 4 9 9 9 9 4 4 5 4 3 4 = = = = * = * * 0 5 * & 5 5 * X 4 4 4 4 8 8 4 3 4 3 4 4 4 4 4 4 4 4 6 4 4 4 4 4 4 6 4 4 4 4 4 4 ",
"5 6 5 5 8 4 9 1 1 9 1 % 4 4 3 4 % & * & * * 5 5 0 4 = 4 5 3 * * : 3 5 4 4 e e 8 4 4 4 4 4 4 4 4 4 6 3 4 4 3 4 4 4 4 4 4 4 4 6 4 ",
"5 5 3 5 9 4 1 1 1 w 9 % 9 4 3 4 4 * * 4 4 4 4 4 3 % 4 4 3 4 6 8 3 4 e $ $ 4 4 8 4 4 4 4 4 4 4 4 4 4 4 3 3 4 4 3 4 6 4 4 4 4 4 4 ",
"3 3 3 3 9 9 1 1 b b w 9 q 4 4 e 9 4 4 : 4 7 4 7 : $ : 6 8 6 6 8 8 4 5 $ 4 h 4 $ 4 4 4 4 3 4 4 4 4 4 4 4 4 4 4 4 4 4 4 4 4 3 4 4 ",
"6 5 6 3 4 q 1 1 S S r 4 4 > 3 7 e 7 4 4 4 7 4 > : : : 4 8 3 5 8 8 $ 4 4 D ' N 3 6 4 4 4 4 4 4 4 5 4 4 4 4 8 4 6 4 4 4 4 4 4 4 4 ",
"4 6 4 4 > 4 q 4 q 4 6 > 7 6 4 4 3 4 4 7 6 4 4 3 4 6 4 4 4 4 4 4 5 = 4 4 e N h 6 7 6 7 8 4 4 * = = - * 0 e 4 e h 6 4 4 4 4 4 4 $ ",
"4 4 4 * : : 4 > 4 4 4 4 4 6 > 4 4 4 4 4 4 4 4 6 4 4 4 4 4 4 4 4 = = * 3 7 e f 6 f 6 7 5 4 4 * 4 * 0 4 * 6 4 7 4 7 7 6 4 4 4 5 * ",
"* 4 4 * * 4 4 4 4 4 4 4 4 4 4 : 4 4 4 4 4 4 4 4 4 4 4 8 6 4 4 4 * 4 5 4 : 4 4 6 7 4 4 4 4 4 * 4 : 6 , G ~ s ; 6 6 4 > 4 4 4 = = ",
"5 4 4 = = 4 4 - 4 4 = = 4 5 5 * 4 4 4 4 4 4 4 4 4 4 4 4 8 4 4 4 4 4 5 4 4 : 4 4 6 > 4 4 4 $ * 4 y d y R | C + h 7 4 3 4 = 5 - = ",
"* - 4 - 5 - * 4 5 = = = - 5 = 4 4 4 4 6 4 4 4 4 4 6 4 4 4 4 8 4 4 4 4 4 4 4 5 = * = 4 5 : $ 3 s E _ z t x x < 6 4 4 4 * 5 4 = 4 ",
"- * 4 = - * * - = = * = = = & * 4 4 4 4 4 4 4 4 4 4 7 4 5 6 4 4 4 3 > 5 4 - = = * = 0 5 * $ 4 f %.*.E i p y 6 6 4 4 * = = 5 5 4 ",
"4 * * 5 5 * * - 5 & = = = = = * 4 4 4 4 4 4 4 4 8 4 5 4 4 4 5 7 4 6 4 4 5 4 & = = = = 5 4 4 4 s $.#.E x x , , 7 4 4 = = 4 4 4 4 ",
"4 4 4 q e 4 4 4 4 4 4 4 4 5 4 4 3 4 4 4 4 4 4 4 8 8 4 4 4 4 4 8 4 4 4 4 5 & * - - & * 4 0 7 4 6 Y E p @   : 7 3 5 = = = 4 4 4 : ",
"6 4 : 6 6 4 6 : 7 4 $ : 4 e q 4 4 4 4 4 4 4 4 4 : $ 3 3 4 4 8 5 : $ 7 7 4 5 - * 5 - - 4 4 4 7 6 y p s s 4 4 * - & & & 4 5 4 6 7 ",
"s , : V V < 4 7 7 4 > : 4 4 4 6 4 4 4 4 4 6 4 4 4 4 3 3 4 4 4 4 e 4 e e * = * & * 5 * 4 4 4 4 6 < s 7 4 4 * - - & = = 5 4 6 7 6 ",
"7 , V | | h , 7 6 7 7 6 6 4 7 4 4 4 4 4 4 4 4 4 4 4 4 4 7 4 4 : 4 * * 4 $ $ 4 6 4 4 4 4 4 4 4 4 4 4 4 = * & - - & = = = 4 6 7 < ",
"< s G +.o.C < 6 7 7 7 8 6 4 4 4 3 3 3 4 6 4 8 4 4 4 4 4 4 4 * $ e 4 4 7 7 8 M h : 7 7 4 4 4 4 = $ * = * - - & & = = = 4 4 4 6 4 ",
"s < s I K , : 7 7 8 8 4 4 4 4 4 3 6 3 3 4 5 8 7 4 4 4 4 4 4 3 $ e 0 * q 6 4 s + < 6 6 7 7 4 = 4 & % = 5 5 = = * = = = 4 5 4 4 * ",
"6 6 : 4 4 : 6 7 4 4 4 4 4 4 4 = 4 4 4 4 4 4 4 4 4 6 3 4 4 4 4 % & = . 4 , + k s d s 6 6 4 4 = = * * 4 5 e 0 4 4 * 4 4 - 5 * = = ",
"6 e : 7 7 4 e 4 5 4 = = = = - 4 4 4 4 4 4 4 4 4 4 4 4 4 4 4 4 4 * 0 * e 7 s ( ) x d < < 7 5 = = 4 4 4 4 7 7 7 6 4 4 = 4 4 - & & ",
"4 7 : 4 4 4 e * e 5 3 = - 5 5 = 4 4 4 4 4 4 4 4 4 4 3 * 4 4 4 * # 0 $ 7 , s | +.c d , 6 4 9 5 = 7 4 : : > 4 6 > 4 4 4 4 - - & & ",
"4 4 6 4 4 4 4 4 4 4 4 4 4 4 4 5 e 4 : 4 4 q 4 4 4 4 4 = 4 = 4 5 = * * 5 8 6 8 B 6 6 6 6 4 4 4 * 4 4 4 4 4 4 4 * % $ * * = = = = ",
"4 4 4 4 4 4 4 8 4 4 4 4 4 4 4 4 : $ 4 7 3 4 e $ 4 = 4 = 4 = = = = 4 4 4 4 6 7 4 6 3 4 5 4 - 1 - 4 * 4 4 * 4 * 5 = = * * 4 5 4 4 ",
"4 4 4 4 4 4 4 4 4 4 4 4 4 6 3 4 7 4 e 7 O 3 e 6 4 = 4 = = 4 4 = * 5 e * * 6 6 6 8 4 4 4 4 5 9 9 4 * 4 4 5 - 5 5 4 = = 4 5 4 5 4 ",
"4 4 4 4 4 4 7 5 6 * 4 4 4 4 4 4 3 3 $ 4 8 4 * 4 4 4 4 4 - 4 = = & 5 5 4 3 5 7 4 4 8 4 5 9 = - - * 4 = 4 4 5 - 5 = 4 4 = 4 4 4 = ",
"7 4 4 4 4 8 4 6 : 3 3 3 4 4 4 4 . 4 $ N { L $ q 4 = 4 4 * 4 = 4 > > = 9 4 > : 4 6 5 4 4 9 - = 1 5 * = 4 * 4 4 * 4 4 4 4 4 4 = = ",
"7 4 8 4 4 4 4 4 4 3 3 4 4 4 4 5 6 e 3 N { L . 4 4 4 4 = 4 4 = 4 q 1 1 q > % $ 4 4 4 4 4 = = = = 4 - 4 4 4 % 4 * 4 5 5 5 4 = 4 4 ",
"* : 4 4 8 4 4 4 4 4 4 4 4 4 4 6 4 8 O * e 4 . $ * 4 4 4 = 4 = 4 w q q q 4 % $ 3 4 4 - 4 - * = = * * 5 * 4 4 4 4 4 4 5 7 4 4 = 5 ",
"$ $ $ 4 4 4 4 4 5 4 8 4 5 4 4 4 4 4 8 4 $ 4 e 4 4 4 = 4 4 4 4 4 w b g 1 > q e 5 4 4 4 - - - 1 4 = 4 4 4 4 4 8 7 3 4 4 4 * * = 5 ",
"3 4 4 4 4 4 4 4 4 4 4 4 4 4 4 4 * 4 4 = 4 4 4 * 4 4 4 4 q 4 4 4 w S S w 1 > > * 5 3 * * - 4 * * * 5 4 4 4 6 4 3 $ $ 7 8 4 4 0 = ",
"4 7 5 8 4 8 8 4 4 4 4 4 4 4 6 4 4 4 5 4 4 4 5 * 4 4 4 4 4 4 4 4 1 w w 1 % 4 9 4 3 3 - 4 5 4 5 - = * * 4 4 4 7 h I e $ 4 4 4 5 * ",
"4 4 4 7 8 4 4 3 4 4 4 4 4 4 4 4 4 4 4 5 5 = 9 4 7 4 * 3 : 4 4 7 % 9 1 > % > 4 & 3 - 5 5 4 3 4 4 5 # $ 5 7 4 8 V o.D $ 4 e 5 * * ",
"4 3 4 4 4 4 3 3 4 4 4 6 4 4 4 4 4 - 4 4 4 4 5 4 8 4 4 : * 3 4 e 1 2 4 % % - 4 % 5 5 O 8 4 4 3 6 0 * 4 4 4 : 7 h ] V 4 7 4 # * 0 ",
"8 5 4 4 4 4 4 4 4 4 3 4 6 4 4 = 4 - 4 5 4 5 * 4 4 4 4 4 3 6 4 4 4 3 5 - 4 5 - = * 3 3 O 9 7 q 7 4 5 5 4 > 6 6 7 6 : : e 4 # 5 5 ",
"8 4 3 : 6 4 4 4 4 4 4 4 4 4 4 4 4 5 5 = 5 4 5 4 4 4 4 8 8 5 6 4 8 5 5 O = = * - * 3 5 5 7 < : $ $ - 4 > 4 e 7 < < , 4 4 4 4 0 & ",
"4 3 $ $ 4 4 3 3 4 4 4 4 4 4 4 4 4 * 5 5 4 = 4 4 4 4 4 6 4 3 4 4 0 5 8 - - X * O 3 5 8 3 : > f h 4 * * 4 8 7 6 6 h 7 7 7 4 4 4 * ",
"4 4 3 4 5 8 4 6 4 4 4 4 4 4 3 4 4 - * * 5 * 4 4 4 4 4 4 3 6 4 4 3 4 - - - - - 0 4 5 5 6 , h ! } e & * 7 e 6 < s < : 7 7 4 * 5 - "
};
