/* XPM */
static char *_d990bebd1ee4ba19359b33fae8e31bboF6SclW0deJ1YaW8[] = {
/* columns rows colors chars-per-pixel */
"64 64 256 2 ",
"   c #020301",
".  c #0A0100",
"X  c #010B01",
"o  c #0A0A03",
"O  c #02020B",
"+  c #0B080B",
"@  c #130100",
"#  c #150A01",
"$  c #011200",
"%  c #0B1300",
"&  c #091803",
"*  c #171804",
"=  c #020316",
"-  c #191015",
";  c #270200",
":  c #251C15",
">  c #351203",
",  c #0D2400",
"<  c #162402",
"1  c #1D3609",
"2  c #262803",
"3  c #283A04",
"4  c #352F12",
"5  c #031437",
"6  c #332A27",
"7  c #162B3C",
"8  c #480502",
"9  c #591704",
"0  c #4F1205",
"q  c #671701",
"w  c #791704",
"e  c #6E0D05",
"r  c #592805",
"t  c #4D2B10",
"y  c #792609",
"u  c #70370E",
"i  c #4F3529",
"p  c #6A3828",
"a  c #3C4705",
"s  c #354C0C",
"d  c #3A4D2B",
"f  c #1B4700",
"g  c #4F4F12",
"h  c #674802",
"j  c #6F500F",
"k  c #526B10",
"l  c #716C19",
"z  c #4C572C",
"x  c #7C4D28",
"c  c #566C27",
"v  c #697A2C",
"b  c #687C3A",
"n  c #2C3E6C",
"m  c #1A2F56",
"M  c #673A46",
"N  c #36515C",
"B  c #71554D",
"V  c #51724E",
"C  c #716B51",
"Z  c #706F64",
"A  c #595D63",
"S  c #980A00",
"D  c #971704",
"F  c #871504",
"G  c #A91805",
"H  c #B41A02",
"J  c #AF1B10",
"K  c #852602",
"L  c #9A2504",
"P  c #983503",
"I  c #973316",
"U  c #8D3014",
"Y  c #AA2402",
"T  c #BA2505",
"R  c #A83307",
"E  c #B62514",
"W  c #B73719",
"Q  c #A82D16",
"!  c #AC3524",
"~  c #903727",
"^  c #CB1B03",
"/  c #C72708",
"(  c #D52802",
")  c #D8370A",
"_  c #C52A15",
"`  c #C73516",
"'  c #D63818",
"]  c #D12E10",
"[  c #E93716",
"{  c #F03D16",
"}  c #D43523",
"|  c #EB3C26",
" . c #8B500E",
".. c #B0500E",
"X. c #957516",
"o. c #B36F18",
"O. c #924B29",
"+. c #B64D2B",
"@. c #956E2D",
"#. c #B46D2F",
"$. c #D8461A",
"%. c #D04E13",
"&. c #F4451B",
"*. c #EC4B13",
"=. c #CB5A37",
"-. c #D34B2C",
";. c #E84729",
":. c #F84627",
">. c #E85429",
",. c #EE5434",
"<. c #886553",
"1. c #A66D47",
"2. c #8A716C",
"3. c #AF6656",
"4. c #EB4F40",
"5. c #CE7647",
"6. c #D47568",
"7. c #EC6F46",
"8. c #59811F",
"9. c #7A9917",
"0. c #6E8E0F",
"q. c #7CAA0A",
"w. c #7DB409",
"e. c #7CA814",
"r. c #7EB519",
"t. c #728D30",
"y. c #7BB423",
"u. c #7FAF37",
"i. c #748E4C",
"p. c #7FA35D",
"a. c #899418",
"s. c #AC8F1E",
"d. c #84AD0C",
"f. c #8BAD0D",
"g. c #87AB06",
"h. c #95AA0A",
"j. c #85B305",
"k. c #8AB505",
"l. c #86B30D",
"z. c #8AB50D",
"x. c #84BB0B",
"c. c #8AB90C",
"v. c #89BA06",
"b. c #91B30C",
"n. c #92B509",
"m. c #85AD13",
"M. c #8AAD14",
"N. c #86AC1A",
"B. c #8AAE1B",
"V. c #87A616",
"C. c #92AD1C",
"Z. c #95AA16",
"A. c #86B412",
"S. c #8AB413",
"D. c #8CB914",
"F. c #85B31B",
"G. c #8CB41B",
"H. c #8DB91A",
"J. c #84BB15",
"K. c #92B414",
"L. c #92B41B",
"P. c #92BA1C",
"I. c #97B717",
"U. c #ABA619",
"Y. c #9B8928",
"T. c #989A26",
"R. c #909132",
"E. c #AA9828",
"W. c #B09234",
"Q. c #8BAD23",
"!. c #87A928",
"~. c #97A928",
"^. c #8DB322",
"/. c #8BB22A",
"(. c #87B825",
"). c #91B523",
"_. c #94BB24",
"`. c #93B42C",
"'. c #9AB925",
"]. c #89A738",
"[. c #96A936",
"{. c #99B736",
"}. c #88B537",
"|. c #A6AA28",
" X c #A7A837",
".X c #A6B538",
"XX c #B1AA2F",
"oX c #CC8C3C",
"OX c #89C117",
"+X c #97C41A",
"@X c #9AC329",
"#X c #9CC238",
"$X c #A5C526",
"%X c #A6CA37",
"&X c #8A964E",
"*X c #A69847",
"=X c #B48352",
"-X c #B19254",
";X c #88A644",
":X c #99B448",
">X c #90B052",
",X c #A6B648",
"<X c #A9AD50",
"1X c #8C8E70",
"2X c #AF8E73",
"3X c #94AC66",
"4X c #B4AC73",
"5X c #CF9055",
"6X c #CF9970",
"7X c #E79269",
"8X c #D4AC73",
"9X c #E9A577",
"0X c #D3A150",
"qX c #92C14D",
"wX c #A8C946",
"eX c #B2D44C",
"rX c #BBE147",
"tX c #B9CD65",
"yX c #C6EA5B",
"uX c #CED171",
"iX c #E7D574",
"pX c #CFEF6D",
"aX c #C0CE5F",
"sX c #263686",
"dX c #2438B3",
"fX c #18299F",
"gX c #2B41A6",
"hX c #5864B2",
"jX c #7277B9",
"kX c #997285",
"lX c #7F8BA1",
"zX c #B09188",
"xX c #B8AC95",
"cX c #95A7A3",
"vX c #D19A84",
"bX c #CAAE8F",
"nX c #EEB490",
"mX c #CEBDAA",
"MX c #F2ACAE",
"NX c #BDC685",
"BX c #DBCA8A",
"VX c #F2C995",
"CX c #E6E58D",
"ZX c #D6C9AB",
"AX c #E7C7A8",
"SX c #FAD5AB",
"DX c #F8D4B5",
"FX c #EDCFB5",
"GX c #F6E8B3",
"HX c #DDFF82",
"JX c #F9D9C4",
"KX c #EAD6C8",
"LX c #FBEBD3",
"PX c #FFECCC",
"IX c #FAF5E9",
"UX c #D8D3C7",
/* pixels */
"S.S.S.S.z.z.D.D.D.S.M.m.A.m.S.S.z.x.c.x.F.F.z.z.D.!.c z i.3X{.M.c.n.H.).m.).A.D.H.G.S.d.M._.tXpX@XD.S.S.G.D.z.M.S.S.S.S.S.S.S.S.",
"S.S.S.z.z.z.z.z.S.S.A.S.S.S.S.A.S.A.l.A.G.G.c.z.d.!.p.1 < a t.'.M.L.M.e.'.F.A.D.A.A.D.H.G.B.`.wXP.S.l.z.S.S.S.z.l.S.S.S.S.z.S.S.",
"S.S.S.z.z.c.c.z.S.S.S.G.S.S.z.S.G.F.G.A.z.k.D.I.S.N.{.v , $ < t.{.Q._.N.G.S.F.D.A.A.z.S.D.M.B.Q.G.D.S.S.S.S.S.S.D.S.S.S.S.S.S.l.",
"S.S.S.z.z.c.z.S.l.S.M.S.S.S.z.S.H.G.G.M.S.z.K.D.K.K.Q.].3 X   & t.;X{._.q.S.H.A.S.l.j.l.S.S.L.L.G.H.D.D.D.S.S.D.S.S.l.S.S.S.S.S.",
"S.z.z.z.c.z.z.c.S.S.S.S.S.S.z.l.K.f.d.K.L.C.M.M.g.n.Z.[.c   -   < ;X].).P.g.G.l.z.z.c.D.L.S.S.l.D.z.D.S.S.f.l.l.S.f.S.S.S.S.S.S.",
"A.S.S.z.z.z.z.D.A.S.A.S.A.S.z.l.S.G.).`.[.].[.{.I.h.f.{.v X   =   s :XB.z.c.d.D.c.c.z.c.S.S.l.l.l.S.S.S.D.G.D.S.S.S.S.S.S.z.S.S.",
"S.S.S.S.z.D.S.S.S.B.G.N.S.S.z.G.V.9.c k d z z v ].~.~.:Xt.*     X X ;X/.q.I.k.D.D.D.A.l.A.A.z.c.S.S.S.D.D.G.D.G.S.S.z.S.S.S.S.l.",
"G.S.S.S.S.S.S.G.G.G.G.G.M.D.G.G._.k 3 $ X X & & * a t.&X3X* o O O X c ,Xf.k.b.k.S.S.S.S.D.D.z.c.K.S.l.S.D.D.z.f.S.S.S.S.S.S.S.S.",
"m.G.M.m.G.d.G.H.N.G.).m.).A.G.S.G.Q.!.a X X     X X & 6 i.*   = O X s <Xe.$Xk.g.K.m.H.S.l.J.A.A.S.S.S.l.S.S.S.S.S.D.K.D.G.S.l.S.",
"B.G.G.S.P._.'.N.^.#X#X_.^.@XG.m.q.@XQ.:Xt.& X     O + o + 2 O   O X 3 3X].m.f.+XP.G.).M.g.D.H.F.S.S.S.S.S.S.l.S.l.S.S.S.S.z.S.S.",
"^.G.m.G.m.M.).G.^.yXpXrXN.G.G.G._.m./.e./.8.&   = = = O   +         & i.<X{.C.g.M.B.).G.A.H.G.A.S.S.S.S.S.S.S.S.S.l.S.l.z.S.S.S.",
"B.m._.rX@XG.N.Q.#XpXpX%X^.^.S.f.G.A.^.G.H.{.c o = = O O +   #   X     o a R.{.L.L.M.L.P.H.H.F.F.M.S.S.S.D.S.S.S.G.z.l.M.S.S.S.S.",
"G.S._.rX$XF.B.G.F.wXyX#XB.q.S.P.S.+Xq.I.g.N.:Xa O O O : # . . .     +     a t..X%XI.K.K.M.F.F.H.G.S.S.S.S.S.S.l.K.D.S.S.S.S.S.S.",
"G.S.d.G.d.S.H.B.G.^.G.V._.P.K.m.N.G.`.{.Q.[.,X1Xo   : 6 @ @ 6 6 : o         l eX$Xh.z.S.M.G.A.D.D.l.z.l.S.S.S.S.G.S.S.S.S.S.S.l.",
"f.D.z.l.H.G.P.m.N.G.B.m.G.S.S.B.;Xp.t.z a 1 a z - 6 i + # C zX6 : .   O +   a :XI.g.n.b.M.^.A.c.D.S.f.d.S.S.S.S.z.S.S.S.S.S.S.S.",
"D.K.K.d.K.d.G.G.M._.N.G.S.L.d.G.k , $ X   X   . # xX: + 2.KXC   . # 6   O o 2 <X.X'.'.B.e.G.z.z.c.S.m.d.l.l.S.S.l.S.D.D.S.l.S.S.",
"K.S.M.b.S.S.S.d.S.d.d.S.H.D.S.S.e.9.8.f   o o   i zX@ <.FXKX-   i bXB .     : &Xi.c k t.}.F.j.n.z.D.D.S.S.l.S.D.K.S.D.K.D.S.S.S.",
"K.S.z.S.S.K.S.d.D.d.m.D.K.S.A.c.D.F.}.>Xi.4     z 2 0 AXDXzX  1XLXZX@ @ # . .   X f t.i.u./.L.n.z.G.G.K.S.S.S.G.D.D.S.S.S.S.S.S.",
"S.S.z.M.S.S.G.D.D.A.l.D.H.S.A.A.x.l.^.Q.].3Xt.& t 2X<.AXDX2XxXLXbXi : 2.@ > 6 @ o & , 3 c ;X{.Z.K.D.D.D.S.S.S.D.D.D.l.S.S.l.S.S.",
"S.K.K.S.S.D.K.D.S.S.A.D.D.D.A.D.H.D.S.L.C.9.8.c 4 DXbX2XJXJX4X4 : t 2Xx p vXbXt .   X X $ , g C.B.S.D.l.A.l.f.S.G.D.S.K.G.S.S.S.",
"S.S.S.S.l.S.S.K.S.A.D.D.D.A.S.F.e.N.K.Z.V.k f & 4 ZXLXZ bXB bXb 2XSXvX1.6X6.xXt # * 3 k 8.9.9.V.M.D.S.S.f.l.M.l.z.G.S.S.z.G.z.S.",
"z.D.S.A.M.l.S.D.A.S.A.A.A.A.z.A./.V.C.I.h.).}.t.s ZXIXUXUXFXIXIXGXnX6XnX1.6X2X@ 2 c >X:X{.`.).^.S.S.S.l.S.S.l.S.D.S.l.d.l.l.D.S.",
"A.S.S.D.l.S.S.S.l.S.A.A.S.J.A.S.d._.S.q.I.@X(.}.;XNXZXZXKXLXDXFXAX6X8X3.1.6Xh 2 k t.!.m.m.^.Q.N.G.S.S.S.S.D.S.S.S.S.S.d.d.l.S.S.",
"z.A.z.S.G.S.S.S.S.S.D.z.S.S.J.S.b.l.D.D.f.D.@X(./.tXGXFXAXFXSXSXSX8X0X8X8XR.R.:X{./.F.S.D.l.e.e.S.S.S.S.S.S.S.S.l.S.S.S.l.S.S.S.",
"l.J.D.H.G.z.S.S.S.K.S.S.D.A.A.c.v.k.c.OXA.z.J.z.'.T.uXCXSXGXSXSX9X5XW.E..XQ.N.(.e.OXw.j.v.x.J.J.S.S.z.G.K.G.S.S.K.S.S.S.S.S.S.S.",
"A.A.A.l.d.d.l.K.f.D.S.l.S.S.A.c.k.j.z.S.A.S.c.c.h.W.*X-X6X=X5X7X#. .W.XXZ.'.F.A.H.d.z.D.c.j.q.@XD.D.S.l.l.l.S.S.S.S.S.S.S.l.S.S.",
"J.z.A.l.d.f.S.K.K.I.S.S.G.z.A.c.l.D.G.N.F.J.J.K.E.W.@.#.vX9X5X5.W S K  .X.*X[.<X XT.|.Z.f.I.I.f.G.D.S.M.S.S.S.S.S.S.S.S.S.S.S.z.",
"A.D.D.G.S.z.K.K.K.I.K.S.S.S.l.S.J.^.G.G.(.F.d.|.o...5.nXGXnX-.Y H / ! 5.-X-XuXBXuX XE.Z.I.Z.K.K.l.l.D.S.D.D.D.S.l.S.S.D.G.S.S.S.",
"l.A.S.D.D.S.f.f.f.M.f.M.K.D.S.G.F.F.m.S.H.l.V.XXo.%.=.VX7X..Q T ] $.7.SXDXAXSXbXVXuXT.Q.H.d.l.z.l.G.D.l.d.S.l.d.S.S.D.G.D.S.S.S.",
"J.A.S.M.z.M.M.K.K.I.K.z.K.K.S.D.G.m.g.l.D.m.'.0X%.) $.7.W Y W ` $.7.SXSXFXmXVXSX8XiX[.[.`.Q.'.C.K.K.G.d.d.l.S.S.l.S.z.S.z.S.S.z.",
"D.J.l.S.K.z.K.K.$X$XI.K.S.b.M.G.G.M.k.v.v.L. XoX=.] ] T T -._ E +.7XSXAXZXSXnXnX9X0X*X*X*XX.Y.T.Z.S.D.l.f.S.K.S.S.S.S.l.S.S.S.S.",
"z.A.S.S.M.K.f.f.$X$XI.K.M.S.S.I.L.K.c.v.w.K.E.o.$.[ ( / ,...F D D 7XSXFXBXVX9X7X7X5X1.x j g  .h a.f.S.S.D.D.D.z.S.S.S.S.S.S.S.S.",
"A.S.G.F.B.G.b.z.I.z.S.S.B.L.G.C.Z.Z.H.w.w.K.s.%.*.:.| ,.U O.q u y ~ JXbXFX8X6X7XnXI u u h x j h k M.V.$Xl.z.I.z.K.D.S.S.S.S.A.S.",
"z.S.A.m.N.S.D.l.c.l.K.M.G.).B.V.~.[./.#Xu. Xs.R ^ ( ^ / ..O.; i ~ F vX2XzXAXvX6Xx 0 u @.@.Y.Y.R.T.~.).m.K.c.l.k.z.z.S.S.S.S.S.S.",
"z.l.l.l.l.S.l.l.z.b.D.d.G.).Q.{.uX4Xi.b NXDX=.$.| ' :.>.R O.p x ~ F O.nX<.M M p x j a.I.+XI.'.~.[.Q.Q.{.yXI.M.P.S.A.S.S.S.D.G.S.",
"l.c.l.c.z.z.S.A.D.D.z.z.L.V./.yX4XzX1X6 M UX6.J Q ! +...I y ~ y K K 9 <.FXkXkXvXO.R.C.c.k.k.K.N.!.[.V.eXyX^.f.S.S.S.m.S.S.D.S.S.",
"z.c.j.v.k.z.z.S.I.D.l.z.G.V./.uXBXbXxX1X- kXMXF 0 9 0 9 t t i i 8 0 l R.*X4X=Xr @.[.Q.M.f.V.^.(.eXtX!.!.`.m.H.H.G.S.S.S.S.D.z.z.",
"z.l.k.k.v.z.S.S.M.G.b.g.S.H.^.,XCXBXbX1X- 2.6.~ 8 ; > ; ; 0 e i 8 ; *X X[.Y.h h  X{.N.G.~.V.Q.{.pXpXtX!.{.^.N.d.G.S.S.S.S.z.z.z.",
"S.S.z.c.z.S.S.S.M.S.D.l.M.L.Q.!.,XuXaXl z &XO.~ 8 y y 8 9 3.Q J D F r *X*Xh t l [.^.e.z.K.m.F./.HXpXwXV.N.m.A._.S.S.S.S.D.z.z.z.",
"S.S.S.D.G.G.S.G.G.S.K.S.m.S.^.`.~.a. X[.<X*X@.e w ~ =.Q 8 ~ 4.} ] Y y  .u > h  XQ.J.D.J.H.H.F.G.].wX!.Q.e.m.P.m.F.S.S.S.S.S.z.c.",
"S.^.F.N.Q.^._.m.S.l.d.m.G.G.G.B.`.~.~.~.|.W.x 8 U ! ;.=.q 9 -.,.,.} J e 0 l ~.).f.n.k.z.x.J.D.Z.B.^.).S.S.S.A.l.S.A.S.D.S.S.S.S.",
"H.B.!.#X#X/.G.G.S.l.m.S.F.S.S.l.F.V.Z.Z.U.Y.p 8 ! T ;.4.~ 9 I =.| } J I @. X'.d.n.h.h.z.x.r.D.S.C.L.L.D.A.z.z.z.A.S.S.G.G.S.S.S.",
"^.N.{.pXpX{.V.S.z.S.S.S.G.G.l.z.c.x.c.h.U.Y.t > ! T >.,.=.y q +.>.) H Y #..Xl.j.n.h.b.z.w.r.F.^.S.S.z.z.z.c.c.z.c.A.S.S.G.S.S.S.",
"B.B.#XpXpX#XV.S.z.D.G.G.S.S.D.z.j.w.OXf.U.X.t 8 U Y $.T ` ! q I ;.( H L X.|.K.+Xh.n.z.z.z.F.F.G.M.l.z.z.z.k.l.c.z.A.S.G.S.S.S.S.",
"L.G.'.wXwX(.N.G.D.D.G.D.S.A.A.D.w.J.H.M.s.X.r 8 e F G H _ } w F :.( T R  .|.Q.d.j.c.l.A.D.f.M.K.f.l.l.b.c.c.c.j.D.A.A.S.S.S.S.S.",
"G.L.B.B.F.m.).G.G.S.z.z.z.c.J.A.F.H._.~.E.@.u F Q S S $.*.;.! E | [ ( R u Y..X!.G.A.F.G.K.b.b.z.S.d.z.D.D.c.c.l.z.A.G.S.G.S.S.S.",
"M.I.S.b.S.S.P.G.L.S.l.j.j.c.A.S.w.z.h.|. Xo.$.$.-.J S ' *.*.;.4.&.:.] Y K  .BXpX{.).B.B.F.A.j.k.D.S.S.D.D.D.J.A.A.A.S.G.S.z.z.z.",
"S.G.f.z.D.S.G.G.P.D.l.j.c.D.H.H.D.b.f.U.E.o.*.:.[ E S ] *.*.:.| { :./ Y Y y VXiX.X).C.Q.(.J.j.v.G.S.m.S.A.z.z.D.D.A.G.S.S.M.K.z.",
"S.S.l.S.z.S.S.S.S.M.S.z.z.D.G.K.h.Z.z.Z.W.o.%.:.) G J -.*.&.{ :.| [ / E S P 0X'.K.S.G.^.Q.F.J.c.S.S.S.A.S.l.S.S.S.d.d.d.G.S.S.S.",
"S.S.S.D.S.S.S.S.S.l.l.S.S.S.l.f.Z.K.z.I.E...$.;./ ` G G $.) :.{ :.[ ^ _ G  .s.b.M.l.B.G.Q.G.l.l.S.S.S.S.S.D.S.D.D.d.f.S.G.D.S.S.",
"D.S.S.S.S.S.S.S.D.S.S.S.l.f.S.z.f.K.OXf.s.%.*.:.] _ S S ` $.] &.;.H _ E S K j .XC.S.G.G.G.G.c.v.c.S.S.S.S.K.D.D.S.l.l.z.G.S.A.D.",
"S.S.l.f.l.S.S.S.f.A.l.S.D.D.D.G.w.F.J.q.XXo.%.&.[ _ G D H >.) H H H } E H D u  XC.G.S.D.c.c.v.v.z.S.z.S.S.z.S.D.l.z.S.D.z.l.l.S.",
"S.S.l.S.S.S.S.D.d.d.l.l.S.l.S.G.r.y.y.{.iXoX%.,.| _ G S / ] ,.*.) $.) H _ L h XXC.G.A.z.c.c.j.l.z.z.z.z.z.z.D.z.D.l.z.z.z.z.z.z.",
"D.S.G.S.D.z.S.l.S.S.l.S.S.S.S.S.r.r.y.#XiXoX..$._ _ T T -.' &.{ ) ) / T ` L  .XXQ.S.A.z.c.v.l.z.S.z.S.S.A.z.l.l.S.D.D.z.z.z.z.D.",
"f.l.S.D.S.S.S.M.S.S.S.S.S.S.S.A.x.OXc.K.U.XX .K W -.! e R ,.' { ^ ^ ^ ` T P o.~./.F.J.A.S.G.K.K.S.S.S.S.S.S.S.D.S.S.D.S.S.D.D.l.",
"q.d.d.S.S.S.S.l.l.S.S.S.S.S.S.c.v.w.b.I.Z.XXR.O.U e e w 5.o.%.*./ / } E e P E.~.F.F.A.S.S.S.C.B.S.S.S.S.S.S.G.H.M.S.m.S.M.S.S.S.",
"d.l.G.D.D.S.z.D.S.S.S.S.l.S.S.l.k.j.K.L.!.;X3XZX2.i B 1X<XE.o.%.>.-.} w y E.U.K.D.q.A.S.G.D.V.G.M.G.G.S.G.G.G.F.m.G.P.P.A.V.S.S.",
"S.S.D.S.S.D.S.G.S.S.S.S.S.S.S.z.D.G.V.[.3Xi.V cXIXmXp.d ;X`.XXo.U ~ 8 ; =X*XC.z.OXq.D.b.c.D.G._.S.S.A.S.H.G.G._.%X^.e.m.A.H.H.G.",
"D.S.S.S.S.S.l.f.S.S.l.S.S.S.S.S.z.m.}.p.N n 5 5 n 6 1 k u.!.~.<X2XB A kX1X3X[.d.z.j.I.h.j.x.l.A.G.A.m.G.^.G.^.@XpX%XD.G.P.G.S.m.",
"S.l.f.S.D.S.d.q.S.S.S.S.S.S.S.S.D.).qXi.N m N A Z 1Xp.>Xe.^.`.t.UXIXjXsX7 V >X(.l.f.I.K.j.x.x.w.G.S.A.S.G.N.G._.rX@XA.G.G.l.S.G.",
"K.S.S.S.D.G.z.f.S.S.S.S.S.S.S.S.S.G.r.y.qX>X].:X,X].}.`.A.d.$Xt.N hXfXdXsX7 V >X(.F.K.h.j.x.D.S.l.G.D.m.S.G.S.G.G.d.A.G.A.S.S.G.",
"P.S.d.l.l.G.D.D.S.S.S.l.S.z.S.S.G.l.OXOXe.e.).M.S.M.V.S.D.c.D.].V m fXdXgXm 1 >Xu.J.K.K.l.w.S.m.d.S.D.l.D.G.M.A.S.G.G.L.S.S.D.j.",
"S.S.l.d.f.l.S.S.S.z.S.S.S.S.S.l.D.k.g.w.OXq.A.H.L.'.H.^.w.w.q.#X3XA sXgXn n z ;Xy.OXK.'.J.r. X.XK.z.l.z.D.D.S.S.S.m.M.l.f.z.z.l.",
"S.l.S.S.S.S.S.l.S.S.S.S.S.S.S.z.k.n.D.j.OXx.J.A.G.V._.q.J.OXw.w.u.cXjXhXjXlXp.#Xr.OXS.L.r.!.aXpX'.n.l.D.P.G.d.G.H.S.S.D.c.l.c.c."
};
