/* XPM */
static char *_2a65b2ca5094e0f89c35a08196cc8c57qiRWaZCzm4msAlC[] = {
/* columns rows colors chars-per-pixel */
"64 64 151 2 ",
"   c #24191F",
".  c #2A1F25",
"X  c #2B1F29",
"o  c #2E232B",
"O  c #31262D",
"+  c #34292F",
"@  c #332731",
"#  c #362A32",
"$  c #392E34",
"%  c #342738",
"&  c #352839",
"*  c #3B2F39",
"=  c #3C3136",
"-  c #3E323B",
";  c #41363D",
":  c #44393F",
">  c #423641",
",  c #463A43",
"<  c #493D45",
"1  c #463949",
"2  c #4A3E49",
"3  c #4C3F50",
"4  c #4C4147",
"5  c #4E424B",
"6  c #51464D",
"7  c #54494E",
"8  c #524651",
"9  c #554A52",
"0  c #594E55",
"q  c #544758",
"w  c #5A4E59",
"e  c #5C5156",
"r  c #5D525A",
"t  c #61555D",
"y  c #64595E",
"u  c #5E5261",
"i  c #625662",
"p  c #665A62",
"a  c #695E65",
"s  c #645768",
"d  c #675A6A",
"f  c #6A5E69",
"g  c #6C6166",
"h  c #6E626A",
"j  c #706667",
"k  c #71666D",
"l  c #74696E",
"z  c #786E6F",
"x  c #726671",
"c  c #766A72",
"v  c #796E75",
"b  c #7A6E79",
"n  c #7C7176",
"m  c #7E727A",
"M  c #807677",
"N  c #81767C",
"B  c #84797D",
"V  c #887E7F",
"C  c #7E7280",
"Z  c #827681",
"A  c #867B82",
"S  c #897E84",
"D  c #877B89",
"F  c #8A7E89",
"G  c #8C8186",
"H  c #8E828A",
"J  c #908686",
"K  c #91868D",
"L  c #94898E",
"P  c #998F8E",
"I  c #9A908F",
"U  c #928691",
"Y  c #968B92",
"T  c #998E94",
"R  c #9B8F99",
"E  c #9A8E98",
"W  c #9A8E99",
"Q  c #9B9192",
"!  c #9C9291",
"~  c #9D9393",
"^  c #9E9493",
"/  c #9B9094",
"(  c #9B9096",
")  c #9D9394",
"_  c #9C9197",
"`  c #9C9196",
"'  c #9B9098",
"]  c #9D9298",
"[  c #9E9399",
"{  c #9C909A",
"}  c #9D919B",
"|  c #9D929A",
" . c #9E939B",
".. c #9F949A",
"X. c #9E929C",
"o. c #9F939D",
"O. c #9F949C",
"+. c #9E929A",
"@. c #A29897",
"#. c #A0959B",
"$. c #A2979B",
"%. c #A1969C",
"&. c #A2979D",
"*. c #A1959F",
"=. c #A0949E",
"-. c #A2979F",
";. c #A1969C",
":. c #A69C9B",
">. c #A3989E",
",. c #A4999F",
"<. c #A4999E",
"1. c #A89E9F",
"2. c #A397A1",
"3. c #A296A0",
"4. c #A397A1",
"5. c #A398A0",
"6. c #A59AA0",
"7. c #A69BA1",
"8. c #A599A3",
"9. c #A498A2",
"0. c #A69BA3",
"q. c #A79CA2",
"w. c #A69AA4",
"e. c #A79BA5",
"r. c #A69AA2",
"t. c #A99FA0",
"y. c #A99EA4",
"u. c #AA9FA5",
"i. c #A89CA6",
"p. c #A99DA7",
"a. c #AA9FA7",
"s. c #A99EA5",
"d. c #AB9FA9",
"f. c #AB9FAA",
"g. c #AAA0A1",
"h. c #ABA1A2",
"j. c #ABA0A6",
"k. c #ACA1A7",
"l. c #ACA1A5",
"z. c #ADA2A8",
"x. c #AEA3A9",
"c. c #ACA0AA",
"v. c #ADA1AB",
"b. c #ADA2AA",
"n. c #B1A6AE",
"m. c #B2A6B1",
"M. c #B6ABB1",
"N. c #B5A9B3",
"B. c #B8ADB5",
"V. c #BAAEBA",
"C. c #BEB2BC",
/* pixels */
"l z B V K L J J P ! $.7.u.k.z.k.i.f.v.p.i.e.} Y W W i * Z U F X.U Y ` ,.w.$.$.8...Y ..>.Y / K y y Q K m B G K G n v v B p 5 g n ",
"^ ^ @.:.t.h.h.t.$.$.>.<.q.q.t.7.f.f.f.8.e.i.8.X.e.3.h > F 3.3.c.d.w.y.y.l.y.x.M.>.{ >.h.>...m 4 g l.x...<.j.z.7.5.O.{ / l 0 m T ",
"^ I I I ! ) ! ! T L L L Y Y T T } } W U U W E Y E K r & b F Y X.&./ T T T T $.,.../ ..7.q...x = 0 / q.` >.$.q...` ../ K r 4 h K ",
"P J J J J L J J K K L T ] O.X.R } 3.} W W } X.E W K r ; M Y W 4.X.Y L Y T Y Y T K Y K K / { c : 4 H ..T T K T Y K Y ( L y : g G ",
"P J J J J J S B m m B H T { T U U U U Y E o.R E 3.F u ; M U 4.4.#.L F F S S A A Z H H A U Y c 6 4 H ..Y H B H K / ` / T j 4 l K ",
"J V M M M M v l h g l m A A m v b b N Z F Y Y U E A w ; x F W E X.F c k k l x c v K H A K Y x 9 4 K >.K B z B H O.` K H y 4 k K ",
"V M n n M V M n n c v m A A C v b b Z Z F E W E } A i , c U 3.W =.H c l c b N Z m { Y A U U k 9 7 Q g.] A n A / >.O.T K g 4 l L ",
"M z j j z M B B n l x b m Z m c b b b c N F U F R Z u > x F X.U K N x x N S S S H 5.U m K L x 0 , K O.K B h B U K Y Y Y g 4 j H ",
"N n j h c n m v m m b C m v v b x x c b C A K U T H 8 - v U v.X.A m b b Z Z F F Z U W K F U Z 6 4 G ( L B v L ` / K L L g 6 v G ",
"G B m n m m m m A A A A C v h h b b b m m Z Z F F H 8 > Z U  .U A Z Z Z Z A F F U F U U U K x 6 6 G ( L G v G G L H K K p 4 n / ",
"V N B A S B m v v m m m C C C x c b b m Z Z F K R Y w * C H Y U F A Z A F F F D U K U Y Y U f * 9 G T ( K G K K L K H L g - g K ",
"Q Q ( / / / T K A D Z Z D U U D b b Z N Z A F U D F r > Z H H E R R E R R R R Y F F U S F U N 2 6 c m m G m G B K K K ` v 6 g G ",
"0 e 7 7 7 9 7 5 5 2 > > > > > % , 2 , , > > > > , 9 8 > c x s g s i u i i u u w q 8 2 2 2 w u 6 # 5 4 4 6 4 4 4 0 e 0 g y 4 7 g ",
"5 5 4 4 2 2 < < > , 2 8 3 2 2 2 ; > > > - - - - % * 2 # 5 , # * > > > > > > - * 2 * > 8 2 > > , # 4 = - : - 4 - - 4 + - 4 - 4 7 ",
": 4 4 4 2 4 5 5 2 5 w w 1 # 1 s r t d a f f h x c s c 0 w w 9 9 q q 6 8 8 8 8 8 2 2 2 2 * > 1 > = 4 = - 4 4 5 4 : 7 $ $ 4 - - : ",
"H K / ..w.f.z.z.V.N.N.=.x 5 d R =.=.7.i.q.i.u.k.m.T B.w.0.j.7.Y R Y T U U T U U U W Z 2 2 F N.4.O.n.O.O.j...O.[ K g.K G ` Y K B ",
"Q ......$.g.q.O.j.5.' v e > b L ' ' Y P Y ( ( T Y Y ( ` O.<.<.7.u.u.u.w.w.w.1.h.:.:.a 7 ; g v.,.k.n.n.k.v.v.k.w.f.7.X.R R X.R R ",
"T / ..` / O.O.] ] ] ( v 0 - z H Y Y Y Y Y Q T Q P Y Y P P T P T / / T T J J J L $.@.g e ; g x.,.5.5. .W R 4.w.w.9.X.E T R R R R ",
"Y / { Y K Y / / ( ' [ m e : v G P Y ( ) ` Q ( ` ( ` ( T L K L P / T I J F S V S T @.j e $ y t.y. .W H C A U T { R T H U Y Y R R ",
"K / T K G H Y { ) ....m r - n J L P Q [ ` T Q ` ) ^ [ ( L K K L ` ^ / P J S S J J T j e ; y y.1.-.Y H b v Z D F H D A D U T T T ",
"L Y K H S A H { W { { b 0 = x H P L L Q Q L L T P Y ( P L J J L I T L F S S S S S Y g e $ y :.,.-.Y A m v C A C Z Z b Z D U T U ",
"U H C m m m A K Y {  .b 9 - c H ` L L T Q T T ^ Y P P Y Y P Y Y L L P J S V V S V K a e $ y 1.,.W U D m m D H D Z b b b D U U U ",
"K A b x k h v C H T ] m r - v H T G m G K L L ] T Y L Y ' [ ' T Y P L F F S S S V L y e $ a u.7.U H Z m H U U H Z m c m F U U H ",
"U m h g g p g v m H Y b 0 - x A G k g l m m G K Y K G L Y ] Y L L T I F S B V S S L y e ; a n.7.Y H D C A U U H A Z b Z F T U U ",
"b x x c c g h c C D Y D r , r H m u g c m m g u l v m m m m J U F Y Y L F A A F U F v 9 o c 7.=.E U F D F F E ..3.F A Y Y W E F ",
"K G C D C x x b c C A A d 8 u A m g k g r g u g r k m H H C m m U L L J F K L Y A M h t ; N X.F F F L L Y L F F F b c N Z F K F ",
"0 8 8 9 8 1 1 8 8 9 w u 9 , 1 w 6 4 6 - $ 1 , 4 9 6 4 4 , - 4 9 0 8 2 3 6 7 8 6 0 7 3 0 > a h w 2 2 8 w w 9 3 2 2 , , 1 2 2 8 9 ",
"4 1 4 5 5 1 1 8 > - < 5 5 , > 1 > - - > 5 8 - < ; - - 4 > $ # * < , : > , > ; ; ; ; + , # < ; o ; : : > > > > > 1 1 6 > 7 , 1 1 ",
"> > > > > & & > , > > 1 3 > 1 1 5 > , 8 w 1 o 5 8 8 8 w r r w r O ; 3 w 8 8 6 8 9 8 3 t 3 0 3 3 8 8 3 2 > 1 > , , , , @ 7 > , , ",
"U U U E E E U W U H U U U D D U H A H H m 9 1 m m.n.j.{ =.c.b.j.; w N F K F U Y F U F T F Y J E F U F F Z N b c b k r , N b A A ",
"D U E W W 4.8.e.f.w.8.w.8.8.8.f.W W W H b 5 * c =.N.C.B.m.N.{ b * w A } 8.8.e.f.i.m.i.v.y.m.c.N.i.i.y.9.3.W Y U F N t ; U W e.3.",
"H U U W W } =.=.X.W U E W E U W U ( H C b w * r C Y ' H H W D u * w B X.>.=.=.=...c...$.E u.] 9.4.&.=...} 3.3.e.A f 3 @ F W o.Y ",
"G H Y ' O.5.' T ' ' O.] { { ' T ( Y L Y l e = e m Y G m C G G g ; 0 S S 1.1.E ..E K T $.@.X.$.E $.T Y L Y Y Y E N y 0 ; J =.7.>.",
"G H L Y ' Y K G C G H L Y Y Y Y [ ' Y Y l e = e A ( m k v m m h ; 7 M M ,.1.P F V M B S S K / T ` Y K Y L K J K S a 0 ; A @.>.>.",
"G G J U L H V n z l z m G K P L O...' Y k e $ 9 G ' m k z m m k ; 6 M M 1.&.J N N M B S S Y / L K F S F F S A A Y a 0 $ B Y #.=.",
"H H H G G B M z c l l v C G K L [ [ Y L j 9 $ 0 B [ G z m G G h ; 6 M M $.` V M S V J L L P P J S A M M N N M A L a 0 # A L #.$.",
"H G G B G V V V G n v n m G J L T Y Y L g 6 # 0 m ] G v m G G h ; 7 N B ..E V M B A L T P Y J v S B v v M b M A K y 0 ; F U Y T ",
"J H G B V V G V G G V M V V J P J L L K g 9 # e G [ G v m G G c ; 7 S V ] P B M n B L @.L P K v S N b M M N A F J p e : J J J G ",
"J G V V V G V V M V V V V M V J H K L L j 9 + e V O.H m A G H l + 6 A A ] T F A N V K L L R T A S N N B A S S J F y 0 , J K S S ",
"G G G J J V V n l z M V M n V G H L Y Y j 7 + 0 m O.Y G L K A g ; 7 V B $.] F S A S J F S T #.K V M N F F J F L V t 0 > K U F J ",
"V J V B V M z n n n n V V n V V C J g.H m r o r C ( K K G G L g ; e V L w.Y T S S F B K F Z L b F A M B S K K G S a 6 7 K F A K ",
"M G G M B n n n V m M V V V m G m G ( G m r O r m K J H m m J k + < c N E Y w.8.E &.K E L A Y K T K F G H K J F G k 4 < J J A J ",
"J L L J G G G V G m m C J J Y ( 6.Y O.P J g = e J ] [ ) J G K v , t L } m.1.w.] #.v.=.=.7.=.p.f.#.! T T ) >.$.$.F b 6 : K Y F K ",
"g g j u 9 e r e 0 7 6 0 r g g g r 7 y g g 7 = e m m J J A A m g , r A D F k t 3 7 t 0 t a p p d a p p a g k k k l z 7 : S G b M ",
"8 1 8 5 - - 4 ; 5 1 > 1 4 1 > > - = - 4 5 4 : e 4 - 5 7 7 0 7 4 8 0 u 3 8 : 1 ; , , , > 1 < ; ; < < : : : : : ; 4 e 5 $ a y 7 5 ",
"- % * q > > 4 , q 5 > 1 4 1 ; ; 4 4 4 4 - = = = : + - - = : - - ; $ ; X # @ > > , & > ; * , ; ; = $ $ = $ $ $ $ O = ; o : O o   ",
"u 1 d U U H U C C C C D D C C H m m m m m G G j 9 5 g c j l g c h h M x N M b h 6 ; h c t c b k l v v n n m n N B B K A V c M z ",
"u 1 x m.V.m.V.m.N.m.m.m.v.c.j.M.M.B.M.x.x.M.k.v 4 7 K 7.g.j.O.x.m.v.m.w.m.3.W D w 2 E v.F X.=.K $.$.<.=.] ) R R =.J >.) Y K <.T ",
"d 4 b C 9.c.8.n.7.5.O.....^ ( Y ) Y ( L Y K g r 7 < V P ' J Y Y K T L T Y L K y 0 4 v K n.>.] j.=...$.$.7.<.>.....$./ >./ Y ) A ",
"h 5 C H j.b.O.5...[ ) ` ^ ..Q Q ( Y ` Y Y J g r 7 < m L ' K Y Y K T G K G H H r 0 5 v G j.O./ O.T T T T / T Y Y Y Y H K H F K m ",
"h 5 m H j.c.( Y Y Y T P P T Q ) ( ( O.Y Y G g p 7 4 n L ' L L K G G m B m A A a 7 6 v m ..] ( ( T T ) T T L K K L K S G B S L B ",
"u 1 C G j.j.K G G K J K G G K P Y ( 6.( ( G u p 7 - v J ' L L G m m v m m m G g 6 7 n m ( ] ` ( ] ..=.] T Y K K K L S G S S Y S ",
"u 4 C D 8.0.H m A G G G B B V G K Y O.( Y H g g 7 - c H ' L J G n m n A B A G g 4 6 n n Y ....` ) { Q K K G G H G H B G S S K B ",
"r 4 C H -.-.H C A A S G G B B B H J [ ( ] J g r 7 - z J W J H V B G A K H A A g 4 6 m m ( ] ] ` ) Y H G S S S A A A m H S G Y m ",
"w 5 C H W  .D m v b m B S G G B G G Y Y [ Y g g 7 - v J Y G G m m G B Y K G G j 4 4 n B ] ( Y / ] K A m M A N M A S B G G G / S ",
"w 5 C C U U C m h h c m S G G V m G L L O.Y g p 7 - n K Y G C m z n m K H G G z 5 6 v G ` Y K Y T F v l v m m v B B m S A S Y B ",
"q 3 b C  .D x x h h h c v A G J m G J K H G z g 7 - m B 5.m G A m m m G K H m v 7 7 m G / H K / G B m c n m m c n B B n B H K S ",
"u 3 x D T D x u h g d h g v C A H J G A H C v u 0 5 v H Y G A J H J K H H G m v 7 5 n V ..Y H H G G m n n B m v n m m n m S V n ",
"u 1 C H U C C u h d p p g l m m B m v m G G l e 7 7 v Y G G v m m G H G G G G c e 0 B H g./ H G B m v l c m n l v m m m B G G A ",
"u 1 C U H D D C v b v c b m A H m B m H K G l e 4 7 G [ ' K m A B G G G L Y G g , 4 n B ] U G A G S m n B G B n h v m n m A A m ",
"u 1 D W D D W D C C C C A H H H G G L L J V z y 5 5 K P g.J Y L J L L G G G m z 7 r J L g...` ) K K G A J L K S n m N m B B m m ",
"d q C C x u x d p u g g h g h g j j l g g g a y e 4 v g m y l h h v v j r r g v 4 6 z g k p y g h j g g g l h g p h j l c c n n ",
"u 8 u q 5 > 1 1 4 1 1 4 4 4 1 4 - 5 4 : - 4 5 6 7 = 0 : 4 = : , 4 4 4 4 - = 5 p 4 4 y 4 5 , : 4 ; 4 , , : : 4 : - : 4 4 4 5 7 e ",
"1 & 1 & > > > 1 5 4 1 , ; > > > - 4 : - $ = = $ = + - - = - = - 4 # $ - 4 = = - - $ 4 + ; - : 4 - , 4 : ; : 4 4 : : : : = $ = - "
};
